/* XPM */
static char *result[] = {
/* columns rows colors chars-per-pixel */
"61 62 207 2 ",
"   c #020203",
".  c #06060A",
"X  c #0A0A0B",
"o  c #1C1106",
"O  c #0D0D12",
"+  c #141416",
"@  c #151619",
"#  c #1C1C1D",
"$  c #1B1815",
"%  c #160D02",
"&  c #271909",
"*  c #261808",
"=  c #301F0B",
"-  c #211910",
";  c #33200C",
":  c #362A1D",
">  c #1E1E21",
",  c #232325",
"<  c #2D2927",
"1  c #262729",
"2  c #2A2A2B",
"3  c #28282B",
"4  c #342C26",
"5  c #312D2C",
"6  c #392F25",
"7  c #3D3127",
"8  c #3C322B",
"9  c #34302E",
"0  c #2D2E32",
"q  c #232530",
"w  c #2E3033",
"e  c #323234",
"r  c #3A3533",
"t  c #363639",
"y  c #3B3B3D",
"u  c #3D3836",
"i  c #5D3D1B",
"p  c #633E16",
"a  c #443424",
"s  c #4A3622",
"d  c #4E3923",
"f  c #433529",
"g  c #4C3C2C",
"h  c #46382C",
"j  c #543C23",
"k  c #5A3E20",
"l  c #443B34",
"z  c #4D3E31",
"x  c #5F401E",
"c  c #64421D",
"v  c #6B451C",
"b  c #6C441A",
"n  c #7C4C17",
"m  c #714619",
"M  c #75491A",
"N  c #7B4C19",
"B  c #754817",
"V  c #5E4224",
"C  c #54422C",
"Z  c #5D442C",
"A  c #4C4131",
"S  c #4A423B",
"D  c #544333",
"F  c #5A4432",
"G  c #52443E",
"H  c #5F4A36",
"J  c #634422",
"K  c #6B4722",
"L  c #6D4822",
"P  c #674B2E",
"I  c #6B4C2D",
"U  c #62432C",
"Y  c #734C24",
"T  c #784E23",
"R  c #7D5222",
"E  c #79532C",
"W  c #614932",
"Q  c #654D35",
"!  c #6D533B",
"~  c #785836",
"^  c #3E3E41",
"/  c #423655",
"(  c #433758",
")  c #503272",
"_  c #424245",
"`  c #464649",
"'  c #4B4B4E",
"]  c #4B4745",
"[  c #524F4E",
"{  c #554C40",
"}  c #4B4C51",
"|  c #4F4F58",
" . c #5C5A5B",
".. c #595042",
"X. c #725A42",
"o. c #7D6750",
"O. c #5C5964",
"+. c #625670",
"@. c #676668",
"#. c #76757C",
"$. c #75757A",
"%. c #6F6F72",
"&. c #814F19",
"*. c #804E17",
"=. c #85511A",
"-. c #8B551C",
";. c #8C561B",
":. c #935A1E",
">. c #995D1F",
",. c #90571D",
"<. c #9D601F",
"1. c #895826",
"2. c #955C21",
"3. c #9A5E20",
"4. c #855D34",
"5. c #825F3B",
"6. c #9C6122",
"7. c #99642B",
"8. c #84603D",
"9. c #8C6236",
"0. c #9D6A35",
"q. c #A36422",
"w. c #A96723",
"e. c #A66926",
"r. c #AB6A25",
"t. c #A2672B",
"y. c #A5692C",
"u. c #AB6C29",
"i. c #B36D26",
"p. c #B26E29",
"a. c #BA7127",
"s. c #B4712A",
"d. c #BB742A",
"f. c #BD782D",
"g. c #B67027",
"h. c #A36B33",
"j. c #AA7438",
"k. c #BD7A34",
"l. c #B77C3C",
"z. c #C27629",
"x. c #C47A2C",
"c. c #CA7D2D",
"v. c #C37D31",
"b. c #C87F31",
"n. c #9D7344",
"m. c #926F4A",
"M. c #A67745",
"N. c #B17A40",
"B. c #BF803C",
"V. c #CE802F",
"C. c #C78031",
"Z. c #CC8232",
"A. c #CB863B",
"S. c #D28532",
"D. c #D68936",
"F. c #DA8C36",
"G. c #DD8E39",
"H. c #D28B3D",
"J. c #DF913B",
"K. c #E08F38",
"L. c #E08F37",
"P. c #E3933B",
"I. c #E9963C",
"U. c #EC9A3E",
"Y. c #F19D3F",
"T. c #BC8244",
"R. c #B08355",
"E. c #B7916A",
"W. c #C68843",
"Q. c #D28D42",
"!. c #DC9240",
"~. c #E49640",
"^. c #E79B46",
"/. c #F29E40",
"(. c #C09363",
"). c #5B3383",
"_. c #633595",
"`. c #5E4180",
"'. c #734C98",
"]. c #7D7C83",
"[. c #7D53A6",
"{. c #807F87",
"}. c #8C66B3",
"|. c #8137C4",
" X c #8E39E4",
".X c #A576CE",
"XX c #A866E7",
"oX c #AC62F3",
"OX c #B575F3",
"+X c #8B8B8D",
"@X c #85848C",
"#X c #968D84",
"$X c #8F8F90",
"%X c #939393",
"&X c #9A9A9A",
"*X c #9B9895",
"=X c #9B9084",
"-X c #A3978A",
";X c #A49D96",
":X c #B0ADB6",
">X c #AD86CE",
",X c #C387FB",
"<X c #C192F1",
"1X c #E2E2DC",
"2X c #FDF8FF",
"3X c #E6E4E1",
"4X c None",
/* pixels */
"4X4X4X4X4X4X4X4X4X4X4X4X4X4X4X4XM 4X4X4X4X4X4X4X4X4X4X4X4X4X4X4X4X4X4X4X4X4X4X4X4X4X4X4X4X4X4X4X4X4X4X4X4X4X4X4X4X4X4X4X4X",
"4X4X4X4X4X4X4X4X4X4X4X4X4X4X4X4Xn N 4X4X4X4X4X4X4X4X4X4X4X4X4X4X4X4X4X4X4X4X4X4X4X4X4XN N 4X4X4X4X4X4X4X4X4X4X4X4X4X4X4X4X",
"4X4X4X4X4X4X4X4X4X4X4X4X4X4X4X6.s.e.4X4X4X4X4X4X4X4X4X4X4X4X4X4X4X4X4X4X4X4X4X4X4X4X4Xu.s.2.4X4X4X4X4X4X4X4X4X4X4X4X4X4X4X",
"4X4X4X4X4X4X4X4X4X4X4X4X4X4Xn r./.C.n M 4X4X4X4X4X4X4X4X4XN &.4X4X4X4X4X4X4X4X4X4XN =.S./.6.N 4X4X4X4X4X4X4X4X4X4X4X4X4X4X",
"4X4X4X4X4X4X4X4X4X4X4X4X4XN N 6.C.u.&.M 4X4X4X4X4X4X4X4X4XN n 4X4X4X4X4X4X4X4X4X4Xn &.p.b.:.n N 4X4X4X4X4X4X4X4X4X4X4X4X4X",
"4X4X4X4X4X4X4X4X4X4X4X4XN n n =.3.:.n M 4X4X4X4X4X4X4X4X4XM n 4X4X4X4X4X4X4X4X4X4Xn n 2.3.=.n n n 4X4X4X4X4X4X4X4X4X4X4X4X",
"4X4X4X4X4X4X4X4X4X4X4X;.q.e.d.u.;.=.N 4X4X4X4X4X4X4X4X4Xn :.q.2.M 4X4X4X4X4X4X4X4X4XM -.;.u.d.w.q.=.4X4X4X4X4X4X4X4X4X4X4X",
"4X4X4X4X4X4X4X4X4X4Xn :.z.S./.C.n N 4X4X4X4X4X4X4X4X4Xn n q.x.3.n 4X4X4X4X4X4X4X4X4X4XN &.S./.Z.z.;.N 4X4X4X4X4X4X4X4X4X4X",
"4X4X4X4X4X4X4X4XN &.;.3.w.r.u.6.4X4X4X4X4X4X4X4X4X4X4XN n g.K.r.n 4X4X4X4X4X4X4X4X4X4X4X4Xt.u.r.w.2.;.&.n 4X4X4X4X4X4X4X4X",
"4X4X4X4X4X4X4X4Xn -.3.3.3.2.n N 4X4X4X4X4X4X4X4X4X4X4XN N k./.u.n 4X4X4X4X4X4X4X4X4X4X4X4XN n :.3.3.3.&.n 4X4X4X4X4X4X4X4X",
"4X4X4X4X4X4XN ;.q.s.S.d.;.=.4X4X4X4X4X4X3 3 1 4X4X4X4XM n r.D.q.n 4X4X4X4X4X1 4X4X4X4X4X4X4X4X=.;.z.S.p.q.&.M 4X4X4X4X4X4X",
"4X4X4X4X4X4Xn ,.z.S./.Z.n N 4X4X4X4X4X4X1 1 3 4X4X4X4XN *.q.x.<.n 4X4X4X4X3 1 1 1 4X4X4X4X4X4XN &.D./.b.d.-.&.4X4X4X4X4X4X",
"4X4X4X4X4X4Xn -.q.g.S.a.&.N 4X4X4X4X3 2 w 5 0 5 4X4X4Xv.C.D.K.S.C.4X4X4X2 2 2 0 2 2 1 4X4X4X4XN =.x.S.i.q.&.n 4X4X4X4X4X4X",
"4X4X4X4X4X4Xn =.3.w.z.r.n N 4X4X4X4X3 2 e w e w 4X4X4XP.Y.Y.Y.Y./.4X4X4X2 2 t e t 2 3 4X4X4X4XN n p.d.q.>.&.n 4X4X4X4X4X4X",
"4X4X4X4X4X4Xn 2.S.D.P.b.:.;.n 4X4X4X0 0 w y S / 4XV M 6.a.x.S.x.g.2.M d 0 y ` t e e 2 2 < J n -.2.Z.K.D.b.-.n 4X4X4X4X4X4X",
"4X4X4X4X4X4Xn 6.U./.Y.D.3.:.*.N 4X4Xe e e ^ } ] 4XJ n -.3.i.z.r.>.;.n V e ` ' y e e e 2 < c &.>.q.G././.P.,.n 4X4X4X4X4X4X",
"4X4X4X4X4X4Xn 6.U.I.S.S.F.b.u.q.4X4Xe y _ X.0.5.` P n >.a.V.P.c.i.:.*.W ` 8.h.X._ t 0 2 < 2.r.b.D.S.S.I.P.;.N 4X4X4X4X4X4X",
"4X4X4X4X4X4XN 6.U.K.z.S.Y.K.x.s.4X4Xe ^ } 5.z.0.} P n 6.z.F.Y.S.z.>.n W } 0.z.5.} y e 2 1 t.x.P.Y.c.x.P.P.,.N 4X4X4X4X4X4X",
"4X4X4X4X4X4Xn ;.p.z.G.P./.S.:.=.4X4X_ ! h.v.P.N.' G j R :.i.S.r.;.T C S } N.P.k.0.X._ t 5 R 2.F.Y.P.F.f.u.=.n 4X4X4X4X4X4X",
"4X4X4X4X4X4Xn =.:.p.U.U./.b.N M 4X4X} 8.x.D.Y.T.} 4X4XJ n q.z.>.n J 4X` [ W.Y.S.z.8.} t e v &.Z.U.Y.U.r.:.=.n 4X4X4X4X4X4X",
"4X4X4X4X4X4X4X4X&.3.b.z.6.2.4X4X4X4Xy.v.P.U.U.~.Q.n._ S d T ,.N C S ` M.Q.I.U.I.P.v.h.H w f s 2.q.x.c.:.=.4X4X4X4X4X4X4X4X",
"4X4X4X4X4X4X4X4Xn :.z.r.n m 4X4X4X7.z.D.U./.U.U./.T.} _ 4XJ N J 4X] [ T./.U.U.U.U.S.z.E e 2 1 c n i.a.;.N 4X4X4X4X4X4X4X4X",
"4X4X4X4X4X4X4X4X4X4X;.-.4X4X4XE d.C.P.I./.Z.6.v./.!.Q.n.4X{ H 4X4XM.Q.~.U.f.6.D.Y.I.K.z.y.z 5 8 a =.,.4X4X4X4X4X4X4X4X4X4X",
"4X4X4X4X4X4X4X4X4X4XN M 4X4Xw E x.D.Y.Y.U.f.M p.U.U./.W.4X4X4X4X4XW.Y.U.U.e.M x.U.U.Y.S.z.W 0 2 1 b n 4X4X4X4X4X4X4X4X4X4X",
"4X4X4X4X4X4X4X4X4X4X4X4X4X4X0 9.P.U./.Z.6.R C E 6.v.U.I.!.n.4XR.!.~.Y.d.2.Y C 1.6.D.Y.I.P.! 0 3 1 a 4X4X4X4X4X4X4X4X4X4X4X",
"4X4X4X4X4X4X4X4X4X4X4X4X4X4Xw 8.Y./.U.f.n J A V M p.U.U.Y.T.4XA./.U.I.r.N Z A K n C.U.U.U.! 0 0 3 4X4X4X4X4X4X4X4X4X4X4X4X",
"4X4X4X4XN M 4X4X4X4X2 2 e e 0 8.Y.Z.2.R h g A C C R 6.C.Y.I.J.^./.f.2.Y C C A h 8 R 6.D.U.~ 0 e w 2 1 4X4X4X4XN N 4X4X4X4X",
"4X4X4X4Xn M 4X4X4X4X1 2 e e 0 ~ /.x.n c 4Xu G { G I B s.U.I.U.U.U.y.B Q ..G G t 0 J &.C.U.~ w e e 2 1 4X4X4X4XN n 4X4X4X4X",
"4X4XN n N M 4X4X4X4X1 2 w e w E C.i.n c 4X).|.>X1X*X7 Y 2.g.V.r.2.U 8 ;X3X.X|.) 0 c *.i.c.P 0 e e 3 3 4X4X4X4XN n n N 4X4X",
"4X4Xn n -.=.4X4X4X4X1 2 e w w I d.q.=.L 2 _. X<X2X:Xq Z R 7.f.7.T g 0 :X2XOX X) 0 K -.r.a.Q w e e 2 3 4X4X4X4X=.=.n N 4X4X",
"4X4XN ,.D.b.N M 4X4X1 2 e w e r F 0.G.j.4X'.oXOX,X}.3 @.#X=X-X=X#X .0 }.,XOXoX).0 j.G.4.C r e e w 2 3 4X4XM =.D.Z.-.N 4X4X",
"4X4XM :.U.D.-.R 4X4X1 2 e t l l l j.Y.l.< '.XXXXXX[.t %.&X%X$X%X&XO.^ [.XXXXXX+.e v./.9.4Xl l e w 2 3 4X4XN ,.P.P.-.N 4X4X",
"4X4XN 2.I.P.a.q.n v 1 2 w W p.v.J.~./.k.B z ( ( / +.$X%X&XO.# @.&X$X+XO./ / / U M Z.Y.P.G.k.y.F w 2 < c n r.d.U.P.;.n 4X4X",
"4X4XM 2.J.J.c.g.=.M 6 5 0 Q i.b.P.P./.v.;.L e t t @.&X%X$X} .  .$X%X&X .t e 5 L ;.A.U.P.~.v.i.F w < 6 m ;.z.C.J.F.=.N 4X4X",
"4X4X4X4X;.q.I.F.d.w.N c 1 9 z z G 4.c.S.P.s.m o.+X%X&X@.0 ' +.` w %.&X$X+XX.m f.P.Z.c.4.F D z 5 2 c n r.f.P.G.>.,.4X4X4X4X",
"4X4X4X4XN :.P.F.c.i.-.M f 8 w w 0 P i.b.~.d.&.m.;X*X%X@.q | #.} q @.&X*X-Xm.=.k.P.z.p.F 0 0 e 8 a M ;.a.V.L.F.;.M 4X4X4X4X",
"4X4X4X4XN &.;.e.I.F.a.a.a.2.q 3 1 5 f h g R a.S.^.E.@X].#.].].].#.@X@X(.^.Z.a.Y l f f < 1 1 2 7.g.g.a.L.P.3.;.=.n 4X4X4X4X",
"4X4X4X4XN &.*.q.J.F.c.c.c.y.g z g g f a 8 1.a.x.F.R.#.#.#.#.#.].#.#.#.R.J.c.g.K 8 f f g z g C u.c.C.c.G.D.,.*.n N 4X4X4X4X",
"4X4X4X4XN ;.a.r.-.e.P.U.U.I.P.~.~.A.d.g.g.q.=.p & $ + + + + @ @ @ @ @ * & b =.w.a.g.g.D.~.P.P.~.U.I.I.6.;.g.i.=.N 4X4X4X4X",
"4X4X4X4X-.2.a.r.-.r.I.P.P.J.P.J.P.S.a.a.a.q.=.i o * = = = * % & ; ; ; * o b =.w.d.a.a.D.P.K.P.P.J.I.P.6.:.i.i.2.;.4X4X4X4X",
"4X4XB 2.J.Z.=.6.P.F.b.i.;.-.-.=.;.=.=.=.=.>.a.w.-.d.J.J.J.u.m s.P.K.K.i.;.r.z.>.&.-.&.-.-.;.-.-.;.a.c.G.F.:.,.F.F.-.N 4X4X",
"4X4XM 2.F.C.=.3.P.F.a.q.N N N M n &.-.n M :.a.r.6.x.P.U.Y.d.n x./.~.K.a.<.r.a.1.m &.-.&.n M B m M w.d.L.J.;.=.D.D.=.M 4X4X",
"4X4X4X4X=.=.n :.c.p.=.N 4X4X4XJ n :.d.2.4 V &.q.z.i.6.Z./.x.:.V./.v.q.i.z.>.&.d < 2.d.,.n s 4 4 7 M ;.a.z.;.n =.=.4X4X4X4X",
"4X4X4X4XN n B -.g.q.M v 4X4X4Xv -.q.b.t.a i b :.g.q.:.d.J.d.:.f.G.i.:.w.a.-.v d 7 t.c.3.=.j 6 1 2 c M w.i.n M N N 4X4X4X4X",
"4X4X4X4X4X4X< d =.v r 9 4X4XN 2.a.S.Y.b.2.L < j =.=.n =.=.=.=.=.-.*.n &.&.d < L 2.S.Y.b.a.-.B a 3 e 8 M &.a 4X4X4X4X4X4X4X",
"4X4X4X4X4X4X1 7 m J t t 4Xi n :.z.Z.G.v.2.L 6 i m =.2.=.M M M M M 1.2.N m s 4 L 1.k.H.v.z.;.n a 1 e y J v 4X4X4X4X4X4X4X4X",
"4X4X4X4X4X4X1 < e y ` ' 4Xi n :.x.y.4X4X4Xi N V e 0.I.j.4X4X4X4X4Xl.U.~ e J n a < r l t.z.,.N a 3 _ ' y r 4X4X4X4X4X4X4X4X",
"4X4X4X4X4X4X2 2 e y } ` 4X4Xm 2.p.7.4X4X4Xi n Y C 0.F.j.4X4X4X4X4Xv.F.4.z m *.a 1 2 w 1.w.B i : > _ ' t e 2 2 4X4X4X4X4X4X",
"4X4X4X4X1 2 w e e t } ' 4X4X4X4X4X4X4X4X4Xp n 6.z.q.=.s.^.U.^.U./.u.&.w.d.,.n a 1 3 3 < 5 + . . . y ' y e w w 2 1 4X4X4X4X",
"4X4X4X4X1 2 t t e y ' ` 4X4X4X4X4X4X4X4X4Xj b 1.y.6.-.s.F.P./.J.F.r.;.7.y.1.b : # # > > > X .   . y ' t e t t 1 1 4X4X4X4X",
"4X4X4X4X3 2 ' _ e y ' ` 4X4X4X4X4X4X4X4X4X1 < 5 r E z.q.&.x./.s.&.w.z.I r 5 1 O       . . . .     ^ } t e ` ` 2 1 4X4X4X4X",
"4X4X4X4X2 e ' ' 4Xy } ` 4X4X4X4X4X4X4X4X4X2 2 w t I u.1.v 7.A.7.v 1.t.W t 2 < + X     . . . . X X l } t t ' ' 2 2 4X4X4X4X",
"4X4X3 2 w y ' ` 4X^ ' ` 4X1 1 1 1 4X4X1 1 2 e y ' _ r 9 e r r e e e r _ } y w 2 , O . . .     # < _ ' t e ' ` e 0 < 1 4X4X",
"4X4X1 2 t y ' ' 4X^ ' ] 4X1 1 1 1 1 1 2 e e e ^ ' _ e t y t e t y e e _ } y w e 0 # O X   X X # 3 ` ' t t ` ` y t 2 3 4X4X",
"4X4X2 2 ` ' ' ` 4X^ ` ` 4X1 1 1 1 1 1 t ` _ e y ' _ e _ ' y w ^ ' y e _ ` y e _ ` e , X   # 1 1 3 _ ' t e ` [ } ` 2 1 4X4X",
"4X4X4X2 _ _ ' ` 4Xy ' ` 4X1 1 1 2 1 1 e ` ^ y _ ' y e _ ' y e _ ' y e ` ' _ y ^ _ 9 1 + . > 1 1 3 _ ' y e ' ' _ ^ 2 4X4X4X",
"4X4X4X4X1 e ` ` e y ' ` 1 1 1 2 4X4X1 2 e ^ } ' } _ e ^ ' _ e _ [ ^ e _ } ' ' y e 2 2 4X4X2 1 1 3 _ ' t t ' ` 2 1 4X4X4X4X",
"4X4X4X4X1 0 _ y 2 e y y 4X4X4X4X4X4X4X2 2 t ^ ^ _ t 2 t ^ t 2 t ^ t 2 y ^ y _ e 2 2 2 4X4X4X1 1 2 y ^ e 0 y y 2 4X4X4X4X4X",
"4X4X4X4X4X4X1 3 1 1 1 1 4X4X4X4X4X4X4X4X1 1 1 2 3 1 2 1 2 1 1 1 1 3 1 1 2 1 1 1 1 4X4X4X4X4X4X4X4X3 3 3 1 1 1 4X4X4X4X4X4X",
"4X4X4X4X4X4X1 1 1 1 2 4X4X4X4X4X4X4X4X4X4X4X4X4X4X4X4X4X4X4X4X4X4X4X4X4X4X4X4X4X4X4X4X4X4X4X4X4X4X4X1 1 2 1 4X4X4X4X4X4X4X",
"4X4X4X4X4X4X4X4X4X4X4X4X4X4X4X4X4X4X4X4X4X4X4X4X4X4X4X4X4X4X4X4X4X4X4X4X4X4X4X4X4X4X4X4X4X4X4X4X4X4X4X4X4X4X4X4X4X4X4X4X4X",
"4X4X4X4X4X4X4X4X4X4X4X4X4X4X4X4X4X4X4X4X4X4X4X4X4X4X4X4X4X4X4X4X4X4X4X4X4X4X4X4X4X4X4X4X4X4X4X4X4X4X4X4X4X4X4X4X4X4X4X4X4X"
};
