/* XPM */
static char *_785e693a7564aef91593cf185454085vEGwTfxa6u0Ndme7[] = {
/* columns rows colors chars-per-pixel */
"60 60 210 2 ",
"   c None",
".  c #38393A",
"X  c #37362F",
"o  c #760101",
"O  c #7A0000",
"+  c #760C0B",
"@  c #741513",
"#  c #741B1A",
"$  c #741817",
"%  c #76211F",
"&  c #413C2C",
"*  c #4A3937",
"=  c #463B39",
"-  c #4C3B39",
";  c #453937",
":  c #513E3C",
">  c #5C3A37",
",  c #732D2B",
"<  c #742524",
"1  c #73312F",
"2  c #723533",
"3  c #743D3B",
"4  c #793C39",
"5  c #4F451F",
"6  c #514721",
"7  c #5D4B2A",
"8  c #544822",
"9  c #4E443D",
"0  c #54413E",
"q  c #4F4621",
"w  c #604C2A",
"e  c #76413E",
"r  c #6B5538",
"t  c #74553B",
"y  c #3E4141",
"u  c #444343",
"i  c #4C494A",
"p  c #484746",
"a  c #564341",
"s  c #5A4543",
"d  c #5E4846",
"f  c #5F4C49",
"g  c #585757",
"h  c #634C4A",
"j  c #644C4A",
"k  c #724644",
"l  c #714A48",
"z  c #65514E",
"x  c #6A514F",
"c  c #72514F",
"v  c #7B524F",
"b  c #655553",
"n  c #6D5452",
"m  c #6D5956",
"M  c #695C5B",
"N  c #705654",
"B  c #715856",
"V  c #755C59",
"C  c #795E5B",
"Z  c #76605C",
"A  c #7A615E",
"S  c #736256",
"D  c #69696B",
"F  c #6A6464",
"G  c #7D6461",
"H  c #7E6964",
"J  c #776C69",
"K  c #79716E",
"L  c #6E7273",
"P  c #737375",
"I  c #777779",
"U  c #7A7A7C",
"Y  c #6B6F70",
"T  c #830202",
"R  c #8D0101",
"E  c #8D0808",
"W  c #930100",
"Q  c #9B0302",
"!  c #9D0A09",
"~  c #851817",
"^  c #991514",
"/  c #A30100",
"(  c #AC0201",
")  c #A40E0D",
"_  c #B50504",
"`  c #B90908",
"'  c #A11312",
"]  c #A51917",
"[  c #932825",
"{  c #8A3634",
"}  c #853A38",
"|  c #8B2A29",
" . c #A42320",
".. c #C40D0C",
"X. c #CC1312",
"o. c #D31414",
"O. c #DC1818",
"+. c #CD100F",
"@. c #EA1E1E",
"#. c #C82D2C",
"$. c #D63232",
"%. c #DA3535",
"&. c #D62928",
"*. c #EB2121",
"=. c #F32222",
"-. c #FF2526",
";. c #FD2728",
":. c #FE2929",
">. c #E13735",
",. c #FF3939",
"<. c #9C4544",
"1. c #885C4A",
"2. c #854E4B",
"3. c #A14645",
"4. c #846558",
"5. c #84685C",
"6. c #89604E",
"7. c #806763",
"8. c #836A66",
"9. c #866D69",
"0. c #886F6B",
"q. c #8B6661",
"w. c #8A726D",
"e. c #857366",
"r. c #91736F",
"t. c #8E7671",
"y. c #8F7772",
"u. c #8E7672",
"i. c #8D7570",
"p. c #8E7671",
"a. c #8F7873",
"s. c #867C7C",
"d. c #907873",
"f. c #927A75",
"g. c #917974",
"h. c #967E79",
"j. c #967E79",
"k. c #947974",
"l. c #EC4D4D",
"z. c #F44646",
"x. c #FE5C5C",
"c. c #F45455",
"v. c #CE7B7D",
"b. c #F77677",
"n. c #9A827D",
"m. c #9A827C",
"M. c #8F807D",
"N. c #7E7E80",
"B. c #D27F80",
"V. c #8B8A8C",
"C. c #868485",
"Z. c #9E8781",
"A. c #8E8F92",
"S. c #939295",
"D. c #969699",
"F. c #9A999C",
"G. c #999496",
"H. c #A28A84",
"J. c #A68E88",
"K. c #A7908A",
"L. c #AB948D",
"P. c #AF9891",
"I. c #B29B95",
"U. c #B69F98",
"Y. c #B7A099",
"T. c #B8A19A",
"R. c #9F9FA2",
"E. c #A3A2A5",
"W. c #A5A5A9",
"Q. c #AAAAAD",
"!. c #A7AAAE",
"~. c #B7AAAD",
"^. c #ACADB0",
"/. c #ADB1B4",
"(. c #B2B2B5",
"). c #B6B6BA",
"_. c #B9B9BD",
"`. c #B6B8BC",
"'. c #BEAEB1",
"]. c #D58789",
"[. c #CB8183",
"{. c #FE9D9D",
"}. c #FF9494",
"|. c #EC8F90",
" X c #CFAEB0",
".X c #FFB5B4",
"XX c #F7A8A8",
"oX c #BDBDC1",
"OX c #C2BEC2",
"+X c #C1C1C5",
"@X c #C5C5C9",
"#X c #CACACD",
"$X c #CDCDD1",
"%X c #CFD0D4",
"&X c #D1D1D5",
"*X c #D6D6DA",
"=X c #D9D9DD",
"-X c #DBD4D8",
";X c #DDCBCE",
":X c #FFD7D6",
">X c #DDDDE1",
",X c #E2E2E5",
"<X c #E7E7E8",
"1X c #EBEBED",
"2X c #EEEEF0",
"3X c #F4F4F5",
"4X c #F7F7F8",
"5X c #FEFEFE",
"6X c #FBF6F6",
"7X c #FFE2E2",
/* pixels */
"                                            - - - - * * * *             - - = - - - *                                   ",
"                                            - - a s z x V m           0 s h z 0 - * =                                   ",
"                          = - - - - - - - - - - x V w.h.Y.Z.- - = - * d n 8.w.h -                                       ",
"                            * - - - 0 d z n n n h h A w.Z.n.H V s n H G G 7.7.d * ;                                     ",
"                              - : - h N 8.p.p.w.s - x V t.m.Y.Z.N i.T.J.i.G n 0 - - - - - - : - -                       ",
"                            * - : j V 7.w.p.n.H.G V H 7.H 0.Z.h.7.i.H.p.G x d h h n m h s - = =                         ",
"                      ; - - - - d N 8.p.i.d.L.I.m.i.y.w.B V i.y.y.y.y.G N s - h N w.w.V x : *                           ",
"                  * : h n Z Z Z A 8.V z V G h.H.J.J.f.w.8.0.y.y.y.y.d.h.n.h.d.w.8.A A h s - - =                         ",
"                  * 0 n Z w.d.d.y.y.n - h B 0.d.L.I.f.y.y.y.y.y.i.p.i.J.U.Y.T.n.i.Z n 0 0 - - - :                       ",
"                      0 s h n Z 8.y.8.A 8.0.w.d.m.m.y.y.y.w.A Z A 8.d.h.n.m.n.K.K.i.8.H A A A x d =                     ",
"                      - - : d N H i.y.d.d.y.y.y.y.y.y.y.i.w.B N n A w.r.i.i.d.K.U.m.y.d.y.y.0.N j - -                   ",
"                  * : x n H 9.w.7.V 9.y.y.y.d.d.K.L.f.y.y.w.0.w.w.8.C 8.d.d.i.h.j.d.y.y.w.A n a s x d -                 ",
"                  - a B A d.i.w.8.V 0.y.d.d.d.h.P.I.f.y.y.i.f.f.d.8.V 9.h.f.y.d.w.d.d.k.i.V n - s n h - ;               ",
"              = 0 j B 0.w.y.9.B i.L.n.y.d.d.K.I.U.I.h.y.y.m.P.J.d.w.0.n.I.n.w.i.d.d.f.L.L.i.8.n h 0 : - - -             ",
"              : a B A 9.w.w.8.C f.I.n.w.w.f.L.Y.I.L.h.i.w.m.Y.L.h.d.w.n.I.n.h.d.y.y.f.L.L.m.i.C x - - = = -             ",
"          = : j B w.H a d B w.I.H.f.8.B 9.f.L.Y.m.d.d.d.i.m.U.U.I.m.V 8.h.K.I.m.y.y.d.f.m.I.L.i.Z - *                   ",
"          = : j n H V a d n 0.P.Z.i.G N 8.d.J.L.h.w.0.w.w.n.U.U.P.f.N G d.K.U.h.0.i.i.w.w.L.K.f.G 0 0                   ",
"              - - : a c n m G f.d.p.G N 9.d.d.d.f.w.V V w.n.Y.K.f.8.N 7.p.K.U.0.N w.w.V V i.f.d.0.n f -                 ",
"              - = - a V V N A i.w.0.C N 8.i.d.d.w.8.B V 8.p.L.H.a.8.N 7.p.H.L.8.N 0.i.G A 0.0.p.0.A x -                 ",
"                  = d w.8.N G i.H B N N 9.y.y.w.V B m B B Z d.d.i.8.N 7.f.p.i.A N 0.d.i.w.B C i.y.i.V -                 ",
"                  z m 8.G N V 0.v 2 l n 8.p.0.G e 2 } } { 2.w.p.p.4.2 v 9.w.i.A B 0.p.f.0.3 e 7.8.8.A z f               ",
"              - s w.0.N N N N N , o 2 N 8.p.C c @ O / ( (  .r.p.p.2.O , m 8.i.A B w.p.f.q.+ $ c N m A d.V -             ",
"              - a A A h j N k 2 # o 2 N A 7.4 , E W W / X.#.r.w.7.4 o $ 2 v 8.e 1 C 8.i.q.+ $ c x h x V h *             ",
"              - 0 x x - a m 2 o o o 2 m N N $ O / / O E =.>.r.8.m 2 o o o 2 B # o k B w.q.+ @ c h - - * - -             ",
"              - : s s - s n k , $ o $ , k N ~ Q X.X.O E ;.%.7.2.[ ~ o T W $ < + o # , C C 2 2 c j - *   - -             ",
"              - - - - - 0 N N N , o o o 4 N ^ _ =.*.T W =.$.N } ( W o W ( W o o O O + k N N B N x - -     -             ",
"              - -     - s N N N l 2 2 2 < % ! _ ....Q Q ) ' [ ^ R R W / ( / W T o , 3 x N N N N h - -                   ",
"              - =     * s n N N N m N N < O Q ( ( ( ( / o T ( Q o R _ ( ( ( ( T + l B n N N N N j : -                   ",
"                      - : N N N h a j N k 3 4 } ) _ O.O./ ^ 4 | Q ` @...( [ } 3 3 c n s s N N N j : -                   ",
"                      = s n N N d - h N N N B N ' _ =.*.` ] N } ( o.:.o.( } m B m n n : : x N N j - -                   ",
"                      * s N j : : - h n N N N v ' _ =.-.=.#.N <.*.=.:.o.( } N N N N x : - 0 s N j : -                   ",
"                      * s x j = - - h n N n N c ' _ =.-.-.%.N 3.:.-.-.o.( { N N N N N : - - : x j -                     ",
"                          : 9 u = - j N n N B c ' _ =.-.-.$.N 3.-.-.-.o.( } N N N N n : - u u : 0                       ",
"                          - p i i a h x n N x l ] ..=.-.-.$.c <.;.-.-.O.` { x N N x x a a i i - -                       ",
"                          = g Y K P g - j N 0 > &.;.-.-.-.#.: { ;.-.-.;.=.{ - j N a : D L L D u u                       ",
"                        i g D C.N.I F b x x b N >.-.-.-.-.$.n 2.;.-.-.;.;.3.b x x b M L N.C.N.g g                       ",
"                      y g S.R.`.D.P D.^.Z : S.~.z.-.-.-.-.l./.B.;.-.-.-.-.B.!.M : G.^.N.N.^.^.D.U p                     ",
"                      y g A.D.W.D.V.!.OXs.F E.'.z.-.-.-.-.l.@X].;.-.-.-.-.B.oXs.F Q.oXA.V.R.R.A.I u u                   ",
"                      u g P I I S.`.#X*X+X(.`.~.z.-.-.-.-.c.;X|.;.;.-.-.-.v.(.(.).&X*XoX!.N.I I D p p                   ",
"                      y y F D P S.`.$X>X+X`.@X Xz.=.-.-.-.c.,XXX:.;.-.c.b. XOXoXoX&X*XoX^.N.L F g y .                   ",
"                      X . u g P S._.#X=X+X_.%X;Xz.-.-.-.-.x.6X.X:.;.-.b.=X=X=X+X).$X*XoX^.N.D u . X X                   ",
"                      X 9 F J P D._.#X=X+X`.&X-X{.b.,.-.-.x.6X.X:.-.-.|.1X>X*X+XoX&X*XoX^.N.I F b & X                   ",
"                      q t n.s.P D.).#X=X+X`.%X>X4X7X,.-.-.x.6X.X;.-.-.}.5X<X=X+X).&X-XoX^.N.s.n.e.8 6                   ",
"                    7 r S s.V.F.(.#X>X2X*X#X,X2X5X6XXX{.{..X5X7X{.{.{.:X5X4X1X&X#X,X1X%XOXR.G.s.8.t r 6                 ",
"                  5 w 1.4.K S.`.#X=X2X5X<X=X4X5X5X5X5X5X5X5X5X5X5X5X5X5X5X5X5X,X>X4X5X,X*XoX!.N.J 6.t 8                 ",
"                  5 w 1.4.I S.`.#X=X1X5X4X3X4X5X5X5X5X5X5X5X5X5X5X5X5X5X5X5X5X4X2X4X5X>X&XoX!.I 9.6.t 8                 ",
"                  6 w 1.4.P V.`.@X=X2X5X5X5X5X5X5X5X5X5X5X5X5X5X5X5X5X5X5X5X5X5X5X5X4X>X&XoXW.N.J 6.t 8                 ",
"                  6 w 1.4.P A.).&X4X4X5X1X,X4X5X5X5X5X5X5X5X5X5X5X5X5X5X5X5X5X1X,X4X5X4X<XoXE.N.J 1.t 8                 ",
"                  q 7 1.5.U S._.=X5X5X4X,X*X3X5X5X5X5X5X5X5X5X5X5X5X5X5X5X5X5X,X*X3X5X5X3X+XQ.N.K 6.t 8                 ",
"                      K C.W._.&X<X5X1X,X$X+X2X5X5X5X5X5X5X5X5X5X5X5X5X5X5X5X5X&XOX*X,X4X4X*X#X^.P.K D                   ",
"                      P V.).@X*X1X5X<X*X+X_.<X5X5X5X5X5X5X5X5X5X5X5X5X5X5X5X4X#X_.&X=X4X4X,X&X_.W.I L                   ",
"                      L V.).@X*X1X5X1X*X+X_.&X,X4X5X5X5X5X5X5X5X5X5X5X5X5X1X=X+X_.&X>X4X4X>X&X_.W.I P                   ",
"                      P V.).@X=X<X4X,X&X+X`.$X>X4X5X5X5X5X5X5X5X5X5X5X5X5X<X*X+X_.#X*X3X3X>X&X_.W.I P                   ",
"                      P V.).@X=X>X>X#X_._._.%X>X4X5X5X5X5X5X5X5X5X5X5X5X5X<X=X+X`._.oX=X>X=X*X_.W.I L                   ",
"                      L C.W.(.+X#X$X+X).^.Q.#X>X3X4X5X5X5X5X5X5X5X5X5X4X4X,X*X`.Q.(._.#X%X@X_.Q.F.P                     ",
"                          I U U F.oX_.`.A.U +X>X=X>X5X5X5X5X5X5X5X5X5X1X=X>X=XD.U Q._._./.C.U U U                       ",
"                          P I P A.E.E.E.C.U Q.oX#X&X,X<X<X<X<X<X<X<X<X=X#X+X_.V.I F.E.E.R.U I I                         ",
"                                  I I I P I I U Q._._._.`._.`._._._._.)._.A.I I I I I I P                               ",
"                                  Y L L   P P P E.Q.Q.Q.!.^./.(./.Q.Q.Q.Q.V.K P P L P L                                 ",
"                                                                                                                        "
};
