/* XPM */
static char *result[] = {
/* columns rows colors chars-per-pixel */
"61 60 111 2 ",
"   c #130E16",
".  c #141017",
"X  c #161119",
"o  c #1A151C",
"O  c #1D181F",
"+  c #1D1A21",
"@  c #221E25",
"#  c #242027",
"$  c #242229",
"%  c #28272E",
"&  c #2A282F",
"*  c #2C2A31",
"=  c #2F3037",
"-  c #313037",
";  c #34343B",
":  c #39373E",
">  c #37383E",
",  c #39383F",
"<  c #3C3D43",
"1  c #413D44",
"2  c #3C4046",
"3  c #3E444A",
"4  c #424147",
"5  c #42444B",
"6  c #48454B",
"7  c #4A4A4F",
"8  c #454C52",
"9  c #4B4D54",
"0  c #4A5056",
"q  c #4C555B",
"w  c #4E595F",
"e  c #505257",
"r  c #54555A",
"t  c #545A5E",
"y  c #595A5F",
"u  c #4F5960",
"i  c #525C62",
"p  c #5C5D62",
"a  c #576166",
"s  c #596167",
"d  c #5C656A",
"f  c #636569",
"g  c #626A6E",
"h  c #686B6F",
"j  c #646D72",
"k  c #6A6D72",
"l  c #667177",
"z  c #6A7176",
"x  c #6C7479",
"c  c #6F797F",
"v  c #71777B",
"b  c #737A7E",
"n  c #757C81",
"m  c #797E82",
"M  c #778187",
"N  c #7D8285",
"B  c #7C858B",
"V  c #7F898F",
"C  c #818689",
"Z  c #84898C",
"A  c #848D93",
"S  c #898E91",
"D  c #8D9295",
"F  c #879298",
"G  c #8D969C",
"H  c #8F999E",
"J  c #929699",
"K  c #939A9D",
"L  c #989D9F",
"P  c #8F99A0",
"I  c #929CA3",
"U  c #9B9EA1",
"Y  c #96A0A6",
"T  c #9BA2A6",
"R  c #9CA5AB",
"E  c #A4A4A7",
"W  c #A1A7AB",
"Q  c #A4AAAE",
"!  c #A9ADAF",
"~  c #A4ACB2",
"^  c #A8AEB2",
"/  c #ABB1B5",
"(  c #ADB5BB",
")  c #B2BABE",
"_  c #B4BCC1",
"`  c #B9BFC2",
"'  c #B9C1C5",
"]  c #BEC5C9",
"[  c #C1C6CA",
"{  c #C4CACE",
"}  c #CACCCE",
"|  c #C6CCD0",
" . c #CACED2",
".. c #CCD1D5",
"X. c #CFD5D8",
"o. c #D3D5D7",
"O. c #D1D6D9",
"+. c #D6DADD",
"@. c #D9DCDE",
"#. c #DBDEE1",
"$. c #DFE2E4",
"%. c #E1E3E5",
"&. c #E4E6E9",
"*. c #E7E9EB",
"=. c #EAECED",
"-. c #ECEEF0",
";. c #EEF1F2",
":. c #F5F6F6",
">. c #F7F8F8",
",. c #F8F8F8",
"<. c None",
/* pixels */
"<.<.<.<.<.<.<.<.<.<.<.<.<.<.<.<.<.<.<.<.<.<.<.<.<.<.<.<.<.<.<.<.<.<.<.<.<.<.<.<.<.<.<.<.<.<.<.<.<.<.<.<.<.<.<.<.<.<.<.<.<.",
"<.<.<.<.<.<.<.<.<.<.<.<.<.<.<.<.<.<.<.<.<.<.<.<.<.<.<.<.<.<.<.<.<.<.<.<.<.<.<.<.<.<.<.<.<.<.<.<.<.<.<.<.<.<.<.<.<.<.<.<.<.",
"<.<.<.<.<.<.<.<.<.<.<.<.<.<.<.<.<.<.<.<.<.<.<.<.<.<.<.<.<.<.<.<.<.<.<.<.<.<.<.<.<.<.<.<.<.<.<.<.<.<.<.<.<.<.<.<.<.<.<.<.<.",
"<.<.<.<.<.<.<.<.<.<.<.<.<.<.<.<.<.<.<.<.<.<.<.<.<.<.<.<.<.<.<.<.<.<.<.<.<.<.<.<.<.<.<.<.<.<.<.<.<.<.<.<.<.<.<.<.<.<.<.<.<.",
"<.<.<.<.<.<.<.<.<.<.<.<.<.<.<.<.<.<.<.<.<.<.<.<.<.<.<.<.<.<.<.<.<.<.<.<.<.<.<.<.<.<.<.<.<.<.<.<.<.<.<.<.<.<.<.<.<.<.<.<.<.",
"<.<.<.<.<.<.<.<.<.<.<.<.<.<.<.<.<.<.<.<.<.<.<.<.<.<.<.<.<.<.<.<.<.<.<.<.<.<.<.<.<.<.<.<.<.<.<.<.<.<.<.<.<.<.<.<.<.<.<.<.<.",
"<.<.<.<.<.<.<.<.<.<.<.<.<.<.<.<.<.<.<.<.<.<.<.<.<.<.<.<.<.<.<.<.<.<.<.<.<.<.<.<.<.<.<.<.<.<.<.<.<.<.<.<.<.<.<.<.<.<.<.<.<.",
"<.<.<.<.<.<.<.<.<.<.<.<.<.<.<.<.<.<.<.<.<.<.<.<.<.<.<.<.<.<.<.<.<.<.<.<.<.<.<.<.<.<.<.<.<.<.<.<.<.<.<.<.<.<.<.<.<.<.<.<.<.",
"<.<.<.<.<.<.<.<.<.<.<.<.<.<.<.<.<.  X                                             X     X <.<.<.<.<.<.<.<.<.<.<.<.<.<.<.<.",
"<.<.<.<.<.<.<.<.<.<.<.<.<.<.<.<.<.& * * * - - < 1 1 1 1 1 1 1 1 1 1 < 1 1 , ; ; * & * & * <.<.<.<.<.<.<.<.<.<.<.<.<.<.<.<.",
"<.<.<.<.<.<.<.<.<.<.<.<.X X X   1 N m N m R ( ] $.%.&.&.&.*.*.*.*.%.&.$.%. ./ ~ C C C C t X X X X <.<.<.<.<.<.<.<.<.<.<.<.",
"<.<.<.<.<.<.<.<.<.<.<.<.o o o o 4 S Z S S ^ `  .-.-.:.:.,.,.,.,.:.:.:.;.=.@.` ( S C Z Z p o o o o <.<.<.<.<.<.<.<.<.<.<.<.",
"<.<.<.<.<.<.<.<.<.<.. $ f h k h D } } o.O.#.%.&.=.;.:.:.,.:.,.:.>.>.:.;.-.&.#.#.} } } o.U h h h h ; . <.<.<.<.<.<.<.<.<.<.",
"<.<.<.<.<.<.<.<.<.<.  $ m Z Z C ! %.%.-.-.-.-.-.-.=.:.:.,.:.,.,.>.>.>.;.-.-.-.-.:.=.=.:.' Z Z Z Z :   . <.<.<.<.<.<.<.<.<.",
"<.<.<.<.<.<.<.<.<.; 9 e C C b k J  . .o.O.&.-.-.=.:.:.:.,.:.,.,.>.>.>.;.=.-.-.=.O.X.O.O.W z x B C p 9 < <.<.<.<.<.<.<.<.<.",
"<.<.<.<.<.<.<.    1 Z Z C Z g w N _ _ _ _ #.-.-.=.=.:.,.,.,.,.,.>.>.>.;.=.-.;.&.` _ _ ` S w s B Z Z S y   X <.<.<.<.<.<.<.",
"<.<.<.<.<.<.<.& * 9 C C m m j d V _ _ _ _ O.%.%.%.&.=.*.-.-.-.-.;.*.*.&.$.$.$.$.' _ ) _ P j j n m C C f * & <.<.<.<.<.<.<.",
"<.<.<.<.<.X X f N C C N s i b C K _ _ _ _ _ ` _ _ _ ` ` | X.X...| ' ' _ ' ' _ ' _ _ _ _ _ ( R d i b C C C x @ X <.<.<.<.<.",
"<.<.<.<.<.o o f Z C C N s i n Z I _ _ _ _ _ _ _ _ _ _ _ | ......| _ _ _ _ _ _ _ _ _ _ _ _ _ ~ d i b C C C b $ o <.<.<.<.<.",
"<.<.<.. % f h N Z b d g n m U ^ / _ _ _ _ _ _ _ _ _ | | O.#.#.#.#.| | ` _ _ ( _ ) _ _ _ _ ` ( Y K z f z C C k j : X <.<.<.",
"<.<.<.  $ m Z Z Z v t i C Z ! ) _ _ _ _ _ _ _ _ _ ` | ..#.$.$.$.#.....] _ _ _ _ ' ) _ _ _ _ _ _ <.j u j C Z Z Z :   . <.<.",
"<.<.; 7 r N Z b x x z n / ) } o.{ _ _ _ _ _ _ _ ] { +.+.#.$.$.$.#.#.+.| ] _ _ _ _ _ _ _ _ _ _ ` <.n z z x x C C p 7 < <.<.",
"X X 4 Z Z C Z d t j C K %.-.-.-.+._ _ _ _ _ _ ] | X.$.$.$.$.&.$.$.$.$.X...] _ _ _ ) _ _ ( _ <.<.<.D Z c i p N Z Z Z p X X ",
"X X 4 Z C n N g a z C J %.=.=.-.+._ _ _ _ _ ) ] X.X.$.%.%.$.&.$.$.$.$.#.X.| _ _ _ _ _ _ <.<.<.<.<.S C b s d n N N C y . X ",
"X   4 Z N s a z v n C J +.%.*.-.+._ _ _ _ _ ) { $.$.$.$.$.$.$.%.$.$.$.$.$.X._ _ _ _ _ ) ] ..[ S C Z Z N c x s i z n 0 X X ",
"X X 4 C m i i j v N C J o.@.&.=.X._ _ _ _ ` ` } &.$.$.$.$.$.%.$.$.$.$.&.$.O._ _ _ _ _ _ [ ..[ F C C Z M v x i i j n 0 X X ",
"X X - d s i i a s j b N K L L L ~ _ _ | | +.%.&.=.=.$.$.$.$.%.%.&.$.$.$.$.X._ _ _ _ _ <...@...Z m l g d s s i i a d 5 X X ",
"X   = i i i i i i d b b C C C C I _ ` ....&.;.-.-.-.$.$.$.%.%.$.$.$.$.$.$.#._ _ _ _ ` <...*.O.V n d u u i i i i i a 2 X X ",
"<.<.* ; < u i i u s j z m N C C D T T Q ^ @.-.=.;.=.%.$.$.%.$.%.$.$.$.$.$...~ ~ ~ R F n A T K x j a i i i i i i 3 ; = <.<.",
"<.<.<.o @ q i i i t i a v b N Z C C C C Z  .;.;.=.=.%.%.%.%.$.%.$.$.$.$.$.] P P I P l u u u i i i i i i i a i i %   X <.<.",
"<.<.<.+ @ 3 8 q i i i a z x N Z Z Z Z C Z ' +.$.-.=.#.@.$.#.@.#.$.#.#.#.#.] P I P G j i i i i i i u i i u u 0 8 * X <.<.<.",
"<.<.<.<.<.X o < i i i i i i n Z C C Z Z Z Z Z / -.=.X.............| ..] ` ~ P P V V g i i i i i i i i u a q + o <.<.<.<.<.",
"<.<.<.<.<.X X - <.u u u i u n Z C C C Z C C C / -.*.....| ....| ..| ..' _ ~ Y P V V d i i i i i i i i i u 0 + X <.<.<.<.<.",
"<.<.<.<.<.<.<.+ + - a u u a x n N C Z Z Z C C ! -.*.] ' ' ` ' ' ' ' ' _ ' ~ P P V B j i i i i i i i i 3 $ $ <.<.<.<.<.<.<.",
"<.<.<.<.<.<.<.X X % a u i i z b N C Z C Z Z C / ;.%.' ) _ _ _ _ _ _ _ _ _ ~ Y P V B g i i i i i u i a 2 X X <.<.<.<.<.<.<.",
"<.<.<.<.<.<.<.<.X + * ; w i d g v C Z Z Z C C W O.o.X...] _ _ _ _ _ _ _ _ ~ F V c l a i i i i i u 2 < * o <.<.<.<.<.<.<.<.",
"<.<.<.<.<.<.<.<.<.<.. o q i u w j Z C Z Z C C U _ ' *.=. .` _ _ _ _ _ _ _ R B M a i i i i i i i i %   X <.<.<.<.<.<.<.<.<.",
"<.<.<.<.<.<.<.<.<.<.. + 3 8 q i j N C C Z C C J / ) *.=.| ) _ _ _ _ _ _ _ Y n n a i i i i i a 3 8 % X <.<.<.<.<.<.<.<.<.<.",
"<.<.<.<.<.<.<.<.<.<.<.<.O O 5 i g b b C C Z Z Z C K %.=.| _ _ _ _ _ _ _ _ H a a i i a i i a q + + <.<.<.<.<.<.<.<.<.<.<.<.",
"<.<.<.<.<.<.<.<.<.<.<.<.o o 2 w d b b C C Z Z C C J &.=.| ) _ ( _ _ _ _ _ G u u i i i i i a 3 + X <.<.<.<.<.<.<.<.<.<.<.<.",
"<.<.<.<.<.<.<.<.<.<.<.<.<.<.% # < s d b b C Z C C J $.-.{ _ ) _ _ _ _ ~ R V i i i i i i 3 $ $ <.<.<.<.<.<.<.<.<.<.<.<.<.<.",
"<.<.<.<.<.<.<.<.<.<.<.<.<.<.o o - i a v b N Z Z C J %.;.{ ) _ _ _ _ _ R P B i u i i i i 2 . o <.<.<.<.<.<.<.<.<.<.<.<.<.<.",
"<.<.<.<.<.<.<.<.<.<.<.<.<.<.<.<.& , 2 d g N C C C D | X.X.X.| _ _ _ _ R P B i a i i 3 < - <.<.<.<.<.<.<.<.<.<.<.<.<.<.<.<.",
"<.<.<.<.<.<.<.<.<.<.<.<.<.<.<.<.<.o # q i n C Z C D ( _ #.;.+._ _ _ _ R P B u i a i * o o <.<.<.<.<.<.<.<.<.<.<.<.<.<.<.<.",
"<.<.<.<.<.<.<.<.<.<.<.<.<.<.<.<.<.o # 5 8 l m N C S ~ / +.;.+._ _ ( ( P A n u u 9 8 * o <.<.<.<.<.<.<.<.<.<.<.<.<.<.<.<.<.",
"<.<.<.<.<.<.<.<.<.<.<.<.<.<.<.<.<.<.<.O o 3 a l Z C Z Z  .;.+._ ( Y Y l i a a q # + <.<.<.<.<.<.<.<.<.<.<.<.<.<.<.<.<.<.<.",
"<.<.<.<.<.<.<.<.<.<.<.<.<.<.<.<.<.<.<.o o 3 w g C C Z Z  .;.+._ _ Y P l i i w 0 @ o <.<.<.<.<.<.<.<.<.<.<.<.<.<.<.<.<.<.<.",
"<.<.<.<.<.<.<.<.<.<.<.<.<.<.<.<.<.<.<.<.<.# $ 6 n N C Z } ;.+._ ( Y P l i 3 $ $ <.<.<.<.<.<.<.<.<.<.<.<.<.<.<.<.<.<.<.<.<.",
"<.<.<.<.<.<.<.<.<.<.<.<.<.<.<.<.<.<.<.<.<.X   , n m C C  .;.+.` ( Y I n u < . . <.<.<.<.<.<.<.<.<.<.<.<.<.<.<.<.<.<.<.<.<.",
"<.<.<.<.<.<.<.<.<.<.<.<.<.<.<.<.<.<.<.<.<.<.<.- 4 9 m S ) O.{ _ ( M n 8 < % <.<.<.<.<.<.<.<.<.<.<.<.<.<.<.<.<.<.<.<.<.<.<.",
"<.<.<.<.<.<.<.<.<.<.<.<.<.<.<.<.<.<.<.<.<.<.<.<.X @ m S ^ ) ) ` ~ a u %   + <.<.<.<.<.<.<.<.<.<.<.<.<.<.<.<.<.<.<.<.<.<.<.",
"<.<.<.<.<.<.<.<.<.<.<.<.<.<.<.<.<.<.<.<.<.<.<.<.X $ f k ! { ` ( R u 8 *   <.<.<.<.<.<.<.<.<.<.<.<.<.<.<.<.<.<.<.<.<.<.<.<.",
"<.<.<.<.<.<.<.<.<.<.<.<.<.<.<.<.<.<.<.<.<.<.<.<.<.<.o + Q -. .I A $ + <.<.<.<.<.<.<.<.<.<.<.<.<.<.<.<.<.<.<.<.<.<.<.<.<.<.",
"<.<.<.<.<.<.<.<.<.<.<.<.<.<.<.<.<.<.<.<.<.<.<.<.<.<.X o E =.[ G m @   <.<.<.<.<.<.<.<.<.<.<.<.<.<.<.<.<.<.<.<.<.<.<.<.<.<.",
"<.<.<.<.<.<.<.<.<.<.<.<.<.<.<.<.<.<.<.<.<.<.<.<.<.<.<.<.1 6 1 - ; <.<.<.<.<.<.<.<.<.<.<.<.<.<.<.<.<.<.<.<.<.<.<.<.<.<.<.<.",
"<.<.<.<.<.<.<.<.<.<.<.<.<.<.<.<.<.<.<.<.<.<.<.<.<.<.<.<.        X <.<.<.<.<.<.<.<.<.<.<.<.<.<.<.<.<.<.<.<.<.<.<.<.<.<.<.<.",
"<.<.<.<.<.<.<.<.<.<.<.<.<.<.<.<.<.<.<.<.<.<.<.<.<.<.<.<.<.<.<.<.<.<.<.<.<.<.<.<.<.<.<.<.<.<.<.<.<.<.<.<.<.<.<.<.<.<.<.<.<.",
"<.<.<.<.<.<.<.<.<.<.<.<.<.<.<.<.<.<.<.<.<.<.<.<.<.<.<.<.<.<.<.<.<.<.<.<.<.<.<.<.<.<.<.<.<.<.<.<.<.<.<.<.<.<.<.<.<.<.<.<.<.",
"<.<.<.<.<.<.<.<.<.<.<.<.<.<.<.<.<.<.<.<.<.<.<.<.<.<.<.<.<.<.<.<.<.<.<.<.<.<.<.<.<.<.<.<.<.<.<.<.<.<.<.<.<.<.<.<.<.<.<.<.<.",
"<.<.<.<.<.<.<.<.<.<.<.<.<.<.<.<.<.<.<.<.<.<.<.<.<.<.<.<.<.<.<.<.<.<.<.<.<.<.<.<.<.<.<.<.<.<.<.<.<.<.<.<.<.<.<.<.<.<.<.<.<."
};
