/* XPM */
static char *_02d9c9f74d2483cbd84121523613ef6gIJw9PJLkotQOGr9[] = {
/* columns rows colors chars-per-pixel */
"60 60 246 2 ",
"   c None",
".  c #342428",
"X  c #333234",
"o  c #3B3C3D",
"O  c #3A3735",
"+  c #333431",
"@  c #770202",
"#  c #781716",
"$  c #5A2C00",
"%  c #4D2B12",
"&  c #783D00",
"*  c #4B3B36",
"=  c #453C3A",
"-  c #4C3B39",
";  c #463937",
":  c #513E3C",
">  c #493C27",
",  c #7C2F2C",
"<  c #1C4331",
"1  c #034238",
"2  c #39462C",
"3  c #51451F",
"4  c #6F4D15",
"5  c #79641B",
"6  c #4D4521",
"7  c #4A4528",
"8  c #524621",
"9  c #554924",
"0  c #5A4C26",
"q  c #5C4D2A",
"w  c #54492B",
"e  c #5C512D",
"r  c #4B413F",
"t  c #46403F",
"y  c #54413E",
"u  c #584B35",
"i  c #5E5433",
"p  c #66532C",
"a  c #614E35",
"s  c #6C5333",
"d  c #645537",
"f  c #765839",
"g  c #634E2C",
"h  c #786439",
"j  c #7B7A38",
"k  c #3C3D42",
"l  c #2C3946",
"z  c #3A454D",
"x  c #375774",
"c  c #2B4D6A",
"v  c #17517F",
"b  c #434343",
"n  c #4A4847",
"m  c #564341",
"M  c #5A4644",
"N  c #5D4846",
"B  c #5B4C4C",
"V  c #555455",
"C  c #5A5A5B",
"Z  c #595658",
"A  c #4F5051",
"S  c #634D4A",
"D  c #654A46",
"F  c #6A524D",
"G  c #675548",
"H  c #775848",
"J  c #6D5452",
"K  c #665B59",
"L  c #705654",
"P  c #735956",
"I  c #745C59",
"U  c #795E5B",
"Y  c #7B5A55",
"T  c #784B49",
"R  c #696247",
"E  c #756449",
"W  c #686356",
"Q  c #7A625E",
"!  c #796458",
"~  c #7A7154",
"^  c #4A5A69",
"/  c #565F65",
"(  c #516676",
")  c #6C6C6C",
"_  c #666565",
"`  c #7E6561",
"'  c #746C68",
"]  c #6D7274",
"[  c #737475",
"{  c #797A7C",
"}  c #777678",
"|  c #727270",
" . c #635E5A",
".. c #921310",
"X. c #AA0B0A",
"o. c #BA231A",
"O. c #8B3632",
"+. c #9E2923",
"@. c #DD1C1C",
"#. c #F62726",
"$. c #E52424",
"%. c #945005",
"&. c #8F7313",
"*. c #90453E",
"=. c #8D712C",
"-. c #A76621",
";. c #FF4139",
":. c #8B5E4A",
">. c #855948",
",. c #8C4F4B",
"<. c #896747",
"1. c #93694C",
"2. c #9D704C",
"3. c #866458",
"4. c #956C55",
"5. c #9B7455",
"6. c #987459",
"7. c #87745A",
"8. c #A47C5B",
"9. c #A97B55",
"0. c #826A65",
"q. c #866D69",
"w. c #896E6A",
"e. c #866A63",
"r. c #8B726D",
"t. c #867668",
"y. c #987766",
"u. c #8F7772",
"i. c #8B7975",
"p. c #927A75",
"a. c #967E79",
"s. c #957A73",
"d. c #A87662",
"f. c #DE4C44",
"g. c #BA940B",
"h. c #908B30",
"j. c #B4AD33",
"k. c #AD9428",
"l. c #C99E01",
"z. c #D0AE10",
"x. c #C5B034",
"c. c #E2BC2B",
"v. c #FED608",
"b. c #EFC706",
"n. c #FBF807",
"m. c #FCEC08",
"M. c #C7C530",
"N. c #D5D418",
"B. c #A8815D",
"V. c #B19455",
"C. c #B5B451",
"Z. c #9A827D",
"A. c #948678",
"S. c #908C74",
"D. c #A78266",
"F. c #B48967",
"G. c #A68775",
"H. c #B59470",
"J. c #AFA469",
"K. c #8E8D5A",
"L. c #C99459",
"P. c #C98966",
"I. c #D6926D",
"U. c #C89B77",
"Y. c #DA9D76",
"T. c #CF9368",
"R. c #C8AC66",
"E. c #D5A576",
"W. c #E0A37C",
"Q. c #B4D049",
"!. c #ECD37E",
"~. c #1A5686",
"^. c #275D88",
"/. c #266A99",
"(. c #306792",
"). c #2B75A7",
"_. c #4B7A9A",
"`. c #476A84",
"'. c #627282",
"]. c #7D7F81",
"[. c #4A7FA3",
"{. c #3388BA",
"}. c #6D8A8B",
"|. c #63A699",
" X c #4786AF",
".X c #648EAF",
"XX c #278CCB",
"oX c #3692C9",
"OX c #63AAD6",
"+X c #868789",
"@X c #9E8781",
"#X c #928A8E",
"$X c #989798",
"%X c #97948B",
"&X c #A28B85",
"*X c #A68E88",
"=X c #AB938C",
"-X c #A59489",
";X c #A79A94",
":X c #B39B94",
">X c #B69E97",
",X c #B3978C",
"<X c #B7A099",
"1X c #AFA38F",
"2X c #9E9EA1",
"3X c #A6A5A6",
"4X c #BABABD",
"5X c #B6B5B7",
"6X c #B2B0AD",
"7X c #8DA6BD",
"8X c #D9AB83",
"9X c #CAB091",
"0X c #E5AB84",
"qX c #E5B78C",
"wX c #EBBD92",
"eX c #C3BDB1",
"rX c #D6C38E",
"tX c #ECC597",
"yX c #F6CA9C",
"uX c #E9C38C",
"iX c #D5CABC",
"pX c #F6CCA4",
"aX c #EDD1A3",
"sX c #FDDEAD",
"dX c #F4D6A9",
"fX c #F0D0AE",
"gX c #FFE0AF",
"hX c #FFE1B0",
"jX c #BABEC4",
"kX c #83ABC7",
"lX c #C0BDC1",
"zX c #B3C3D1",
"xX c #A7CCE4",
"cX c #C7C6C7",
"vX c #CBCDD3",
"bX c #D3D3D5",
"nX c #DAD9D7",
"mX c #D1D5CD",
"MX c #ECD9C5",
"NX c #F5E7D4",
"BX c #D2DBE3",
"VX c #D7E8F3",
"CX c #E8E7E8",
"ZX c #FDFDFE",
"AX c #F3F3F3",
"SX c #EEF0F2",
/* pixels */
"                                      b b m t t r m             k r r t r r r r                                         ",
"                                      * - - - m y - =           m M m m : : - -                                         ",
"                                          - N q.` J M - - ; - - a.=Xu.0.L S : - - - - - - - - - -                       ",
"                                          - S w.0.I F m m m N F @X=Xp.q.J S M M m M y r - - - - -                       ",
"                          ; - - - - - - - ; M P Q u.r.r.U J a.;XZ.u.Q J : m 0.r.w.` J D - - -                           ",
"                          ; ; - : y m N M y M S P w.u.Z.q.U Z.=Xu.q.Q I B J a.Z.p.q.I F y : - =                         ",
"                              - : S I w.w.L S - M L p.>X&Xr.u.u.U P w.u.r.a.:X=Xp.i.u.0.J M - - - - -                   ",
"                              - : D J 0.0.Q I S J U u.=X&XZ.a.u.` Q r.p.Z.@X*X&Xq.0.` ` w.I S S S M m                   ",
"                          ; - - - ; y J Q r.u.r.u.u.u.p.*X<X@Xu.r.u.p.a.:X=Xa.q.L S - Q <X&Xu.u.i.U J m =               ",
"                          m M S F F J Q 0.Z.@X&XZ.u.u.u.Z.*XZ.u.u.p.u.u.*X*Xp.r.` Q Q i.*Xp.0.Q U F B -                 ",
"                      ; - F P w.i.u.u.u.Z.>X<X<X*Xu.u.u.u.u.u.u.p.u.i.u.u.u.u.u.u.Z.<X*Xu.` L M - - -                   ",
"                      m N M S U 0.r.u.u.p.&X&X&XZ.u.p.u.u.u.Z.&Xp.u.p.p.@X@Xu.u.u.a.&Xp.0.` ` I J S M y                 ",
"                  ; - S L m - F P r.u.u.u.u.u.u.u.p.u.i.u.p.=X<XZ.u.u.a.:X:Xp.p.u.u.u.0.J 0.r.u.i.Q J m -               ",
"                - - - m M N S Q q.&X&Xp.u.u.u.u.Z.*XZ.u.Z.*X:X>XZ.r.*., w.p.&X&Xp.u.u.r.0.` ` w.u.q.` F N -             ",
"                - - - - - S I w.p.:X:Xp.u.u.u.u.Z.<X@Xu.*X<X>X:XZ.w.# @ T U :X=Xp.u.r.u.u.0.L 0.u.u.r.Q J : -           ",
"                      - : I w.&X*X@XZ.u.u.u.Z.=X*XZ.r.U @X<X*XZ.0.Y ....# , s.Z.p.3., ,.=Xa.q.` U J S ` q.J N -         ",
"                      = - ` a.=X:Xp.u.u.u.u.a.>X*Xp.Q F a.:X@Xr.Q T X.X.@ # e.u.u.,.@ ,.>X&Xu.` L m - ` r.I F - -       ",
"                    - N J 0.p.a.Z.Q Q u.r.U e.a.a.p.T # ,.@Xi.u.+.X.$.@.X...Y 0.u.,.@ O.Z.&X=Xw.L J S S M m m           ",
"                  = - S P q.u.r.r.I I r.w.J U r.u.i.O.@ ,.u.u.w.+.X.#.#.X.X.T Y r.,.@ , r.&X:Xr.J L L m - - -           ",
"                  - - P r.u.u.Q I q.r.i.3.# , u.e.P O.X.O.p.` Y @.#.#.#.#.@.X.+.u.T @ , I w.a.0.L e.q.M -               ",
"                  m m Q u.r.w.U U r.i.u.3...O.r.t.3.*.o.,.r.0.e.f.;.;.;.;.#.o.+.r.>..., K ` u.Q J 0.r.S y               ",
"                = P q.Q P P I q.r.u.r.U e.8XH.I G.dXyXtXH.I 9XpXyXpXyXpXsXyXwXU.I y.0XD.P ` u.Q L P I 0.q.m ;           ",
"                - J q.I F J P w.u.r.w.e.y.8XG.G y.rXaXgX,Xe.9XgXhXhXhXsXtXrXE.H.F y.tXU.3.0.w.e.3.L J ` q.m -           ",
"                - : : 7 9 G P w.u.I 3.8XU.p 0 9 0 e J.gXsXfXsXgXsXhXsXaXh q q 0 8 <.wX8XT.y.P d.P.H r J L : -           ",
"                - - - 7 9 G P w.i.P e.qX8X~ G % i E 1XgXgXgXgXgXhXsXhXaX' R > w ~ D.wX0XI.d.P d.I.H > D F : -           ",
"                -     7 3 D P w.r.L 3.qXaXbX$X. ) bXMXhXgXgXgXgXsXhXhXsXnX5XO B cXiXtX0XI.d.P d.I.f 3 : : * -           ",
"                -     7 9 a F Q 0.Y 3.qXtXCX3X. K jXiXhXgXgXgXgXsXhXhXsXcX3X. B nXMXwXW.P.4.J 1.9.s 9 * * - -           ",
"                      = - 8 9 F P 1.8.qXpXSX5X. B #X9XhXgXgXgXgXhXhXhXfX;Xi.. Z CXNXtXU.4.>.L a > * -     - -           ",
"                      ; : u a F P 1.9.qXfXAXeX% * H 1XhXgXgXgXgXgXgXhXaXe.F % P SXNXtXU.2.3.L D a : -                   ",
"                      - : S L L P 1.9.qXpXZXeX$ $ $ V.hXgXgXgXgXgXhXhXtX4 $ $ :.AXNXyXU.2.3.L J L m -                   ",
"                      ; - S L D D f =.8XqXMX8X& %.& V.hXgXgXgXgXsXhXhXtX%.& & =.fXfX0XF.f s M F L y -                   ",
"                      ; : S L : * > g P.Y.wXT.%.%.%.L.hXgXgXgXgXhXsXhXpX-.%.%.-.wX0XI.2.9 > - D P y -                   ",
"                          m M K K K W =.4.Y.Y.L.L.E.uXgXgXgXgXgXgXgXgXdXE.E.L.T.W.L.=.Y W W _ B M y                     ",
"                          ; - ) } } | w f P.Y.wXyXgXgXgXgXhXgXgXsXgXgXgXhXdXtX0XI.9.8 G { [ } V -                       ",
"                          b n ) ].2X2X%XA.E 1.B.T.W.wXyXyXyXyXyXyXyXtXtX0XW.F.8.f 7.%X$X3X#X} V =                       ",
"                          b n ) ].6X4XjX2Xq p 2.9.T.E.qXqXqXqXqXqXqXqXqXI.P.2.=.0 ~ 5XjX5X$X{ C n                       ",
"                        b ] +X2X3XjXjXvXcX;XA.g p f f h h h h h h h h h f p g R $X6XvXcXjX6X3X#XA.C z                   ",
"                      t n ].$X5XjX5X5XvXvXeX$Xd i p a e e e w 8 w i e e i d p ~ 5XcXbXcX5X5XjX3X$XC o                   ",
"                      z b ) ].lXvX3X$X$X3XvXbXnXnXnXmXcX6X1X+X) $X3X4XlXmXnXnXnXbXjX$X$X2XjXBX2X{ V b                   ",
"                      k k _ } 5XcX$X+X].+XzXBXZXZXZXSXnXcX6XS.S.1XeXnXCXZXZXZXSXzX6X{ }.#X3XcX#X) A b                   ",
"                      X X b n  ._ / Z = z ^..XnXSXZXZXZX!.z.z.g.z.c.NXAXZXZXCXjX(.x k n C _ _ A n O X                   ",
"                      + O n V C C V A X l ~.[.jXBXZXSXVXrXj.z.l.z.C.mXVXZXAXzX7X~.c X k A Z Z Z A t +                   ",
"                      6 8 t.Z.| _ n = X l v ^./.kXZXxXoXoX{.Q.n.|.oXoXOXSXVX[./.~.c . o b Z ) i.Z.d 6                   ",
"                      w g 7.Z.i.} n o X l x ^./..XBXOXXXXXoXQ.n.|.XXXXoXxXxX).^.^.c X o k / i.p.Z.H g                   ",
"                    6 f :.5.d.,X=Xb X X = T Z ~./.).).XXXXXXQ.v.|.XXXXXX)./.~.^.L M X X X ' :XG.B.1.>.q 8               ",
"                  6 8 f 1.8.B.G.a.= X O k Z ^ x x `.`. X X XJ.x.}. X[. X`.`.x ^ Z A O X X P G.D.8.4.1.q 8               ",
"                  8 3 <.B.d.B.1.>.o X b z ~.x P H :.<.:.t.+X}.}.+X}.3.>.,.:.H K ~.c b k X a 1.5.8.B.8.p 3               ",
"                  8 3 <.5.5.4.f s O X b b x ^ ( ( '.'.'.[ } J.C.S.].] '.'.] ( ^ x c t k X : f <.5.5.4.g 8               ",
"                  6 8 f <.:.<.w 6 X 2 z b V ^ ).).XXXXXX_.' M.n.K.) {.XXXXXX).(.V A z 2 X > 3 f :.:.>.q 8               ",
"                      a s s f G.-Xu w 5 h Z / x `._. X_.S.j.j.j.j.C.}.)._._.x ^ C R =.p O ' 1X7.s s s w                 ",
"                      6 9 8 e mXSXh 4 g.g.W V V C ) ' ' M.n.h.C N.n.K.) ) _ C Z V h l.&.3 1XZXS.8 8 8                   ",
"                       .W ;XeXSXSX} R 5 5 &.k.j.x.x.x.M.j.j R z j h.j.M.x.x.x.k.h.&.&.h R 6XZXmX6Xt.W                   ",
"                      ] { nXZXZXSX#X) u p g.z.v.v.v.m.n.h.b b b b n N.n.v.v.v.b.l.h.3 R } 4XZXZXZX3X[                   ",
"                      ] { nXZXZXAX+X[ _ E 5 =.C.R.R.R.J.E 7 7 w w u V.C.R.R.C.V.5 h R W } 4XZXZXZX$X[                   ",
"                      ] [ vXZXZXSX+X[ ] _ 9 d a.*X:X*XZ.E 3 3 9 6 0 u.@X:X=X@Xw.9 G ] ] } 4XZXZXSX$X]                   ",
"                          +X$XCXAX#X] A 2 8 a 4.y.D.6.3.s 3 < < 7 0 H 3.D.d.4.>.9 7   _ } 4XZXeX$X                      ",
"                          ] { bXCX+X)     6 g <.1.B.4.H a 8 < 1 2 3 f 3.5.8.1.H 3 7     [ 6XAX;X)                       ",
"                              +X+X        3 s 8.8.d.4.>.p 3 < 1 2 3 H <.B.B.8.<.0 6       }.+X}.                        ",
"                              ] [         6 p 5.5.5.1.H i 6 < 1 2 w f >.5.5.5.<.6 7         [                           ",
"                                            2 e p 0 0 0 7         < 8 0 0 e 0 w                                         "
};
