/* XPM */
static char *a9e7c0bc16bc485fe17f682e8491647cY3IUSRis26rScbZt[] = {
/* columns rows colors chars-per-pixel */
"60 60 239 2 ",
"   c None",
".  c #1E302A",
"X  c #262A27",
"o  c #32322F",
"O  c #63150D",
"+  c #6B120B",
"@  c #73140C",
"#  c #671912",
"$  c #781A12",
"%  c #53300F",
"&  c #67231D",
"*  c #65390F",
"=  c #463B39",
"-  c #4A3C3A",
";  c #473A35",
":  c #52342D",
">  c #722F29",
",  c #5C1810",
"<  c #2A413D",
"1  c #4D4526",
"2  c #4C452A",
"3  c #4B4628",
"4  c #504727",
"5  c #534929",
"6  c #4D413E",
"7  c #43423D",
"8  c #50413E",
"9  c #5B4D33",
"0  c #5D5237",
"q  c #675639",
"w  c #6F4B35",
"e  c #74532F",
"r  c #3F4242",
"t  c #395677",
"y  c #454442",
"u  c #4C4641",
"i  c #4D4743",
"p  c #534442",
"a  c #594947",
"s  c #5D4C49",
"d  c #574846",
"f  c #595859",
"g  c #5F5544",
"h  c #614E4C",
"j  c #684440",
"k  c #774A46",
"l  c #63514E",
"z  c #675646",
"x  c #76584B",
"c  c #665351",
"v  c #6B5654",
"b  c #6D5956",
"n  c #6F5B58",
"m  c #625E5B",
"M  c #725D5B",
"N  c #7C5652",
"B  c #766545",
"V  c #686558",
"C  c #7E6355",
"Z  c #75615E",
"A  c #7A635E",
"S  c #756754",
"D  c #6D6343",
"F  c #696968",
"G  c #756461",
"H  c #7A6662",
"J  c #7D6A66",
"K  c #7C6D68",
"L  c #756A69",
"P  c #6A6B70",
"I  c #6E7173",
"U  c #6C7F7F",
"Y  c #737375",
"T  c #7B7B7D",
"R  c #777779",
"E  c #79776F",
"W  c #475A6A",
"Q  c #8C1B12",
"!  c #831A11",
"~  c #991E13",
"^  c #81180F",
"/  c #8A2219",
"(  c #9B2116",
")  c #93231B",
"_  c #A12015",
"`  c #AA251A",
"'  c #A7251A",
"]  c #B62A1F",
"[  c #812921",
"{  c #8E2F27",
"}  c #922A22",
"|  c #863A34",
" . c #95352D",
".. c #B62D23",
"X. c #B3342B",
"o. c #C8352A",
"O. c #D3372D",
"+. c #D5382D",
"@. c #DA3B31",
"#. c #E33E34",
"$. c #E83F35",
"%. c #884F17",
"&. c #944D35",
"*. c #8B7631",
"=. c #B2423A",
"-. c #DA473E",
";. c #D7433A",
":. c #E94036",
">. c #E7443A",
",. c #87584B",
"<. c #895B55",
"1. c #8B4A44",
"2. c #B25049",
"3. c #836A4A",
"4. c #84644A",
"5. c #896857",
"6. c #8C7656",
"7. c #907B57",
"8. c #94745A",
"9. c #967857",
"0. c #8D714A",
"q. c #A77B51",
"w. c #816E6A",
"e. c #886D64",
"r. c #86736E",
"t. c #8B7468",
"y. c #977768",
"u. c #897671",
"i. c #8A7772",
"p. c #8B7873",
"a. c #8D7A75",
"s. c #8C7974",
"d. c #857773",
"f. c #917E78",
"g. c #947C74",
"h. c #976B65",
"j. c #AC7E6B",
"k. c #C34A42",
"l. c #9B8533",
"z. c #B59735",
"x. c #CCAB3A",
"c. c #9F9557",
"v. c #AE9253",
"b. c #95827D",
"n. c #9C8375",
"m. c #8F866E",
"M. c #A08163",
"N. c #AD8A68",
"B. c #B88767",
"V. c #B09276",
"C. c #A5A461",
"Z. c #B4A14F",
"A. c #C5AC49",
"S. c #CC9374",
"D. c #C39C7A",
"F. c #D39575",
"G. c #CEAC6F",
"H. c #E0BE48",
"J. c #F2D44B",
"K. c #FEFA53",
"L. c #FCF04F",
"P. c #D6C871",
"I. c #DCC457",
"U. c #396693",
"Y. c #497497",
"T. c #4E6E88",
"R. c #4F7CA6",
"E. c #7F7F81",
"W. c #6E8385",
"Q. c #5383B1",
"!. c #5183B0",
"~. c #688DB0",
"^. c #4C8DC6",
"/. c #5B96CA",
"(. c #6DA0CD",
"). c #838385",
"_. c #89898C",
"`. c #9A8781",
"'. c #9D8A84",
"]. c #918A86",
"[. c #969598",
"{. c #889494",
"}. c #A08D85",
"|. c #AC9484",
" X c #A4918B",
".X c #A9958A",
"XX c #B59C87",
"oX c #AC9A93",
"OX c #A89690",
"+X c #B19E96",
"@X c #B3A19A",
"#X c #B2AB9E",
"$X c #AAAAAD",
"%X c #A3A3A5",
"&X c #BFBBAF",
"*X c #AEAEB1",
"=X c #B2B2B6",
"-X c #B6B6BA",
";X c #BABABC",
":X c #9F9EA1",
">X c #C9A986",
",X c #DAAB88",
"<X c #D7B28C",
"1X c #CEBA99",
"2X c #D8B895",
"3X c #E4B994",
"4X c #F2B391",
"5X c #C0BEBF",
"6X c #DAC29D",
"7X c #E6C19A",
"8X c #E8C59D",
"9X c #E7CC9E",
"0X c #D8C1A0",
"qX c #D7C1A0",
"wX c #CDC8BD",
"eX c #E9CCA4",
"rX c #EDD5A9",
"tX c #F2D4AA",
"yX c #F3D8AD",
"uX c #F6DDB2",
"iX c #F9DFB3",
"pX c #E2D3BE",
"aX c #FAE2B5",
"sX c #FAE3BB",
"dX c #BCBCC0",
"fX c #ABC0D4",
"gX c #C6C6C9",
"hX c #D4D4D8",
"jX c #DADADB",
"kX c #D3D2D4",
"lX c #CFD1D5",
"zX c #F2EBD4",
"xX c #D8DDE4",
"cX c #E1E1E4",
"vX c #ECECEE",
"bX c #FDFDFD",
"nX c #F8F7F4",
"mX c #EDF0F0",
"MX c #E0DAD6",
/* pixels */
"                                        y 7 y u u u u             y y p i u u u                                         ",
"                                      = - - - - - - -             - - 6 - - - -                                         ",
"                                          = - b H v s - = - = = 8 h b H n h p ; = - = = - = = = = =                     ",
"                                          = - G r.M v p 6 - - 6 d n Z r.H v s p - - 6 - - - - - - =                     ",
"                            = = = - - = = - - p a J r.K H c v J w.w.J M h 8 L '.s.J J H v h - -                         ",
"                            = - - - - 6 p p d - p H u.p.r.M G a.f.r.w.n h p p.+Xb.u.u.r.n c - =                         ",
"                                = d c Z K `. XG l b Z r.r.r.a.oX`.M Z d.b. X`.f.H n M b p - - - - =                     ",
"                                - p c A r.'.oXr.G M M r.p.f.`.oX`.M H p.`.oX`.p.H M M v a p d p u 6                     ",
"                            = - - - - s b w.f. XOXf.u.u.f.oXOXf.a.r.p.p.p.f.p.i.i.i.i.r.r.r.d.K v h - =                 ",
"                            8 p a a a c M w.a.'.OXf.s.s.a.OX Xp.p.p.p.p.p.p.a.b.a.i.i.i.r.w.J H c s = =                 ",
"                        = p c Z r.i.r.i.i.p.p.a.a.s.s.s.s.s.s.p.p.p.p.p.p.p.}.+X`.i.i.i.M v 8 - - -                     ",
"                        p s M H w.r.p.f.b.f.p.i.s.s.s.f.f.s.p.p.p.p.p.p.r.w.`.OX`.b.a.i.H M h s p p                     ",
"                    = p c M p.K b H i.'.+X}.i.p.s.p.f.oXoXa.i.s.p.p.p.p.H v J a. X+Xb.i.a.i.i.w.b h - =                 ",
"                  = - - s c n G Z r.`.}. Xf.i.<.N e.f.oX+X}.f.w.w.p.f.`.i.H H L `. Xi.J J w.i.i.H n d p                 ",
"                = - - - - - ; h p.`.+X'.i.a.a.> + <.f.oX@X+X Xn Z r.`.@X}.i.H v w.i.M v n M d.f.a.w.b s - =             ",
"                  = = = - p c n H `.@X'.i.w.w.> ! N w.`.OX+X Xn Z r.`.@X Xp.<.| N J H H j > 1.1.b M H M a p             ",
"                        = s u.w.v i.+X'.i.H v { ~ k M r.f.+X Xb Z i.`.@X}.p.1._ > m d.r.> @ ~ Q : a p.w.b h - o         ",
"                    = - s h H M d G '.b.s.N > ..X. .|   f.`.g.| 1.i.f.'.b.p.2.o.X.| N A [ Q ....& : v h d d             ",
"                    - p v v v s = c p.p.i.> + o.$.` ~   p.p.<.'  .p.i.p.i.i.2.$...~ k v } ' @.O.@ # ; ; - =             ",
"                    - - v l d 8 2 h Z w.i.| Q o.$.O.o.  J p.h.o.=.Z J p.w.Z 2.$..._ > & $ ! ` ' @ & s d - ;             ",
"                    = p c l - 2 4 0 v H i.&._ O.>.>.>.    d.h.>.k.k Z p.J v 2.#...~ $ + + @ Q ~ + & n h - =             ",
"                        p 8     2 3.>Xg.M j.S.4X4X4X3XrX1XJ t.4X>Xv n M M v k ,.<.<.k j > k o.o.~ [ v v l a -           ",
"                        = -     1 7.3XV.M XXeXrXuXyXrXrXqXJ g.uX1XM b v v v v v e.i.Z n n N -.@._ { k v v s = =         ",
"                                1 7.8X2X>X8XtXM.D B B B S 1XeXiXqXu.H v b v v v w.i.r.w.m N ;.@._ ~ } | v s -           ",
"                                1 7.7X8X8XyXuX6.0 4 : 4 B rXaXaX0Xa.r.b M A A A r.p.p.i.Z N -.@.` _ ~ { v h ;           ",
"                                1 7.7XeXuXuXaXpX5Xi o     uXaXaX6Xa.r.r.V.<X6XeX Xi.p.d.r.h.-.$.#.o._ [ - - -           ",
"                                1 7.7XtXaXaXiXkXgXi X     aXaXaX0Xp.a.n.XX2XtXaXXXu.p.p.p.t.-.:.$.O._ [ - - -           ",
"                                1 7.3XrXaXaXiX#X].= X 5XmXaXaXaXqXp.|.3XV.9.<XaX.Xu.s.s.f.h.-.:.$.O._ [ - - -           ",
"                                4 6.3X8XiXiXiX XL ; : MXnXaXaXaX0Xp.|.eXD.9.>XuX|.w.u.p.s.h.-.$.$.O._ / - ; =           ",
"                                1 4.F.3XiXiXiX4.% % * MXnXaXaXaX0Xp.XXaX>X0.D.8Xg.b w.p.a.h.-.>.$.O._ > - ;             ",
"                                4 B B.<XtXiXyX*.* * * pXzXsXaXaX0Xp.XXyX>Xq.N.V.5.v r.u.w.e.-.:.$.O._ [ - =             ",
"                                4 e 9.D.7XtXiXq.%.%.*.rXsXaXaXaX0Xu.|.7X,XS.3.5 z b w.u.M N ;.:.:.O._ [ - =             ",
"                                3 q B N.,X8XtXS.v.v.S.9XaXaXaXaXeX|.>X,XF.S.5.0 l b H J M k X.O.#.O._ / : :             ",
"                                    4 0.F.,X8XyXaXaXaXaXaXaXaXaXyX3X,XS.S.S.y.l v b v v v x } ` #.O.~ Q + +             ",
"                                      B 9.N.D.<X3X3X3XeXrXeXrXtX3X,X>XS.B.B.5.v h s c v h j ) ` #.O._ Q + O             ",
"                                      3 4 e 9.B.S.S.F.3X7X7X3X7X3XS.S.S.B.8.4.v p - h v u : ) ` #.O._ Q + O             ",
"                                          q D B 3.3.3.7.7.7.7.7.6.4.6.n.p.w.b d m f a d o o ) ` #.o.^ $ + O             ",
"                                          4 4 2 4 4 5 5 4 4 4 5 4 4 z R R R f ; F R a = . . / ` #.o.+ + O O             ",
"                                          V V m.].        #X&X&X&X&XwXgXgX-X[.[.[.:XY f . . # ! ) Q + #                 ",
"                                          Y T %X;X        bXbXbXbXbXbXbXvXjXgX;X-X-X_.U r X , + O O + O                 ",
"                                        4 l.Z.A.P.zXbXbXbXbXbXcXcXgXgXgXlXjXgX-X-X-X$X:XP f                             ",
"                                        3 *.z.x.H.MXmXbXbXbXmXxXgX=X=X*X5XkXgX=X=X-X-X-X).Y                             ",
"                                          0 e x.J.W.^.vXbXcXlX(.~.f F ).[.%X[.).).).$X=X).I                             ",
"                                          3 5 x.J.W.R.xXvXlXfX^.Y.7 f R _.[.).R R R $X-X_.E.                            ",
"                                          r u A.J.W.U././././.^.Y.2 S oXoX+X X`.d.R dXkX-X%XE.I                         ",
"                                          r y Z.I.W.U.!.!.!.!.Q.T.5 B |..XXX'.g.d.R gXcXgX-XE.I                         ",
"                                          r y E ].5.S A C C C C x 2 q 5.8.M.8.C Y E.hXnXcXgXW.Y                         ",
"                                          r y P R G V Z G L L L b 2 q 4.8.M.5.,.J E.jXbXcXlX[.E.                        ",
"                                          r y f f t U.U.Y.!.!.^.Y.4 q M.M.M.8.,.K T jXbXcXhX;X$XT I                     ",
"                                          7 7 z S W t t Y.!.!.!.U 4 D M.M.M.5.B K T jXbXcXhXdX$XT Y                     ",
"                                          1 5 l.z.S f F P P P P f 3 0 M.M.M.5.x L T jXbXcXhX;X$XT Y                     ",
"                                            1 *.*.*.3.c.C.C.C.C.c.l.*.S 3.3.z q L T jXbXcXhX;X$XE.Y                     ",
"                                              3 5 l.x.J.J.K.K.K.L.J.z.4 4 4 4 4 V E.jXbXcXhXdX$XT Y                     ",
"                                                3 *.*.l.Z.P.P.P.P.G.C.S q 4 3 3 F T jXbXcXjXdX*XT Y                     ",
"                                                  1 1 1 q .X+X+X|.`.`.'.S 4     I T jXbXcXlXdX$XT Y                     ",
"                                                    3 1 9 6.M.V.M.t.t.e.z 5     Y T jXbXlXdX[._.                        ",
"                                                      1 5 ,.3.y.9.4.N x 0 2     Y T jXnXgX$XE.I                         ",
"                                                      1 9 7.9.M.y.4.x x q 4         [.:X{._.                            ",
"                                                      1 9 9.M.9.7.,.B x 0 2         I Y Y I                             ",
"                                                          q q q q 9 9 0 5                                               "
};
