/* XPM */
static char *result[] = {
/* columns rows colors chars-per-pixel */
"60 60 209 2 ",
"   c #0C001D",
".  c #19031A",
"X  c #0F0120",
"o  c #120321",
"O  c #1C0424",
"+  c #1A0A28",
"@  c #1F1630",
"#  c #2C0924",
"$  c #29062D",
"%  c #2B0B2E",
"&  c #240729",
"*  c #330B2E",
"=  c #3A0D2C",
"-  c #390D26",
";  c #2E1423",
":  c #2D0A30",
">  c #321B39",
",  c #271D35",
"<  c #2B2B2C",
"1  c #34322E",
"2  c #2C2739",
"3  c #323333",
"4  c #363A3B",
"5  c #3C3E3E",
"6  c #352F37",
"7  c #44140F",
"8  c #4A170F",
"9  c #4D1B13",
"0  c #461611",
"q  c #531E13",
"w  c #5A2316",
"e  c #5B2417",
"r  c #652B1B",
"t  c #6B2F1E",
"y  c #6D301E",
"u  c #410F29",
"i  c #4C1127",
"p  c #44112A",
"a  c #4E1328",
"s  c #421026",
"d  c #541A29",
"f  c #411B34",
"g  c #562826",
"h  c #4A273D",
"j  c #532D32",
"k  c #61262C",
"l  c #66362C",
"z  c #733521",
"x  c #783D2A",
"c  c #693833",
"v  c #564839",
"b  c #5B412F",
"n  c #7C492F",
"m  c #77472F",
"M  c #774534",
"N  c #3C3C42",
"B  c #3A3545",
"V  c #322E45",
"C  c #303E61",
"Z  c #472C48",
"A  c #44354E",
"S  c #5B3445",
"D  c #483956",
"F  c #523655",
"G  c #503861",
"H  c #3B4145",
"J  c #3D4449",
"K  c #424A4D",
"L  c #484A4B",
"P  c #5A4A47",
"I  c #454E51",
"U  c #4A4057",
"Y  c #495254",
"T  c #4C5559",
"R  c #4C575A",
"E  c #525B5E",
"W  c #575955",
"Q  c #524C52",
"!  c #665B4B",
"~  c #745747",
"^  c #645557",
"/  c #766544",
"(  c #646252",
")  c #4A536B",
"_  c #535D60",
"`  c #595B66",
"'  c #5B4E6D",
"]  c #6C5A75",
"[  c #675372",
"{  c #6A5B70",
"}  c #5A6265",
"|  c #596368",
" . c #63686A",
".. c #6B6D76",
"X. c #646E71",
"o. c #657174",
"O. c #6E7A7E",
"+. c #6C7477",
"@. c #7A7979",
"#. c #814126",
"$. c #844A2B",
"%. c #884829",
"&. c #854828",
"*. c #99572E",
"=. c #865438",
"-. c #985B33",
";. c #8B4B2F",
":. c #A15D30",
">. c #9D6136",
",. c #95613A",
"<. c #A36235",
"1. c #A6693A",
"2. c #B56E35",
"3. c #B56F39",
"4. c #AD703C",
"5. c #B2733D",
"6. c #BA7439",
"7. c #C0783D",
"8. c #805846",
"9. c #996946",
"0. c #8B7A5C",
"q. c #9D7654",
"w. c #8A6A52",
"e. c #A2714B",
"r. c #AD7844",
"t. c #B77D44",
"y. c #C07F45",
"u. c #CD813D",
"i. c #9D8550",
"p. c #BD9D5A",
"a. c #AE8B59",
"s. c #A6917C",
"d. c #BA9167",
"f. c #BEA363",
"g. c #C28C4C",
"h. c #D68C44",
"j. c #DF9347",
"k. c #CE9653",
"l. c #E49F55",
"z. c #D7A95C",
"x. c #CDA159",
"c. c #E6A258",
"v. c #CB9E6E",
"b. c #DCB465",
"n. c #D7B268",
"m. c #C6A174",
"M. c #CCAE6B",
"N. c #E2B664",
"B. c #E2BA66",
"V. c #E8B969",
"C. c #E4AF70",
"Z. c #EBB878",
"A. c #E2A562",
"S. c #EBC26A",
"D. c #587290",
"F. c #737E82",
"G. c #73768C",
"H. c #8279A7",
"J. c #768285",
"K. c #79868A",
"L. c #7D8A8E",
"P. c #778488",
"I. c #7F8C90",
"U. c #848A8B",
"Y. c #818E92",
"T. c #8E8F92",
"R. c #839094",
"E. c #8D9693",
"W. c #929996",
"Q. c #8A908D",
"!. c #B49F82",
"~. c #BDB79F",
"^. c #9995B9",
"/. c #A698A7",
"(. c #99A4AB",
"). c #A2A6A8",
"_. c #A6AEB6",
"`. c #B8B2B9",
"'. c #CFAD80",
"]. c #CFBA95",
"[. c #E2B983",
"{. c #F0CA8E",
"}. c #F4D69F",
"|. c #F5D196",
" X c #EACB96",
".X c #CCC1A0",
"XX c #DBCCA5",
"oX c #D2CFBA",
"OX c #E8D3A5",
"+X c #F4DBA6",
"@X c #F6DDA8",
"#X c #F8DBA4",
"$X c #EBD6AD",
"%X c #F5E4B4",
"&X c #F8E0AA",
"*X c #BEBCC5",
"=X c #BABDD2",
"-X c #BDC0C1",
";X c #C6CCDB",
":X c #CACEDA",
">X c #CAC9D5",
",X c #E5EBDA",
"<X c #DFE0E5",
"1X c #E6E9ED",
"2X c #EBEDF1",
"3X c #F0EEF1",
"4X c #F3F2F3",
"5X c #FBFBFB",
"6X c None",
/* pixels */
"6X6X6X6X6X6X6X6X6X6X6X6X6X6X6X6X6X6X6X6X6X6X6X6X6X6X6X6X6X6X6X6X6X6X6X6X6X6X6X6X6X6X6X6X6X6X6X6X6X6X6X6X6X6X6X6X6X6X6X6X",
"6X6X6X6X6X6X6X6X6X6X6X6X6X6X6X6X6X6X6X6X6X6X6X6X6X6X6X6X6X6X6X6X6X6X6X6X6X6X6X6X6X6X6X6X6X6X6X6X6X6X6X6X6X6X6X6X6X6X6X6X",
"6X6X6X6X6X6X6X6X6X6X6X6X6X6X6X6X6X6X6X6X6X6X6X6X6X6X6X6X6X6X6X6X6X6X6X6X6X6X6X6X6X6X6X6X6X6X6X6X6X6X6X6X6X6X6X6X6X6X6X6X",
"6X6X6X6X6X6X6X6X6X6X6X6X6X6X6X6X6X6X6X6X6X6X6X6X6X6Xz z z z z z z z 6X6X6X6X6X6X6X6X6X6X6X6X6X6X6X6X6X6X6X6X6X6X6X6X6X6X",
"6X6X6X6X6X6X6X6X6X6X6X6X6X6X6X6X6X6X6X6X6X6X6X6X6Xz z z z z z z t r 6X6X6X6X6X6X6X6X6X6X6X6X6X6X6X6X6X6X6X6X6X6X6X6X6X6X",
"6X6X6X6X6X6X6X6X6X6X6X6X6X6X6X6X6X6X6X6X6X6Xz z z z z z z z z z w 9 t z z 6X6X6X6X6X6X6X6X6X6X6X6X6X6X6X6X6X6X6X6X6X6X6X",
"6X6X6X6X6X6X6X6X6X6X6X6X6X6X6X6X6X6X6X6X6X6Xz z z z z z z z t e 9 7 w e z z 6X6X6X6X6X6X6X6X6X6X6X6X6X6X6X6X6X6X6X6X6X6X",
"6X6X6X6X6X6X6X6X6X6X6X6X6X6X6X6X6X6X6X6X6X6Xz z z z z z z z r 8 8 8 8 q z z 6X6X6X6X6X6X6X6X6X6X6X6X6X6X6X6X6X6X6X6X6X6X",
"6X6X6X6X6X6X6X6X6X6X6X6X6X6X6X6X6X6X6X6X6Xz z z z z z z z z %.2.2.2.2.*.w e z 6X6X6X6X6X6X6X6X6X6X6X6X6X6X6X6X6X6X6X6X6X",
"6X6X6X6X6X6X6X6X6X6X6X6X6X6X6X6X6X6X6X6Xz z z z z z z z x #.<.l.l.l.l.y.8 w z 6X6X6X6X6X6X6X6X6X6X6X6X6X6X6X6X6X6X6X6X6X",
"6X6X6X6X6X6X6X6X6X6X6X6X6X6X6X6X6X6X6X6Xz z z z z z z z #.u.A.}.+X}.#X'.q e z 6X6X6X6X6X6X6X6X6X6X6X6X6X6X6X6X6X6X6X6X6X",
"6X6X6X6X6X6X6X6X6X6X6X6X6X6X6X6X6X6X6X6Xz z z z z z z e k =.a.+X@X+X!.0.0 e z 6X6X6X6X6X6X6X6X6X6X6X6X6X6X6X6X6X6X6X6X6X",
"6X6X6X6X6X6X6X6X6X6X6X6X6X6X6X6X6X6X6Xz z z z z z z t & X   P #X@XOX6 o 7 e z 6X6X6X6X6X6X6X6X6X6X6X6X6X6X6X6X6X6X6X6X6X",
"6X6X6X6X6X6X6X6X6X6X6X6X6X6X6X6X6X6X6Xz z z z z z ;.2.!.T.C ..@X@XOX) V 0 e z 6X6X6X6X6X6X6X6X6X6X6X6X6X6X6X6X6X6X6X6X6X",
"6X6X6X6X6X6X6X6X6X6X6X6X6X6X6X6X6X6X6Xz z z z z z :.h.%X,XD.Y.@X@XOXG.) 0 e z 6X6X6X6X6X6X6X6X6X6X6X6X6X6X6X6X6X6X6X6X6X",
"6X6X6X6X6X6X6X6X6X6X6X6X6X6X6X6X6X6X6Xz z z z z z x $.[.%XXXXX@X@X@XXX!.9 e z 6X6XB.b.6X6X6X6X6X6X6X6X6X6X6X6X6X6X6X6X6X",
"6X6X6X6X6X6X6X6X6X6X6X6X6X6X6X6X6X6X6Xz z z z z z z z v.|.&X&X#X&X#X|.m.w e z 6X6Xz.x.6X6X6X6X6X6X6X6X6X6X6X6X6X6X6X6X6X",
"6X6X6X6X6X6X6X6X6X6X6X6X6X6X6X6X6X6X6Xz z z z z z z z 7.c.}.@X@X&X#Xc.6.8 e z g.N.5.>.6X6X6X6X6X6X6X6X6X6X6X6X6X6X6X6X6X",
"6X6X6X6X6X6X6X6X6X6X6X6X6X6X6X6X6X6X6Xz z z z z z z z *.5.C.Z.Z.d.q.-.&.e $.r.g.g.1.6X6X6X6X6X6X6X6X6X6X6X6X6X6X6X6X6X6X",
"6X6X6X6X6X6X6X6X6X6X6X6X6X6X6X6X6X6X6Xz z z z y z z z z n h.j.j.&.7 7 8 y r.S.a.-.6X6X6X6X6X6X6X6X6X6X6X6X6X6X6X6X6X6X6X",
"6X6X6X6X6X6X6X6X6X6X6X6X6X6X6X6X6X6X6Xz %.*.-.=.P ^ @.~ &.[.|.{.s. .L v *.1.a.6X6X6X6X6X6X6X6X6X6X6X6X6X6X6X6X6X6X6X6X6X",
"6X6X6X6X6X6X6X6X6X6X6X6X6X6X6X6X6X6X6X&.>.4.5.,.K ` F.~ =.[.+X@X~.E.} W ,.:.:.6X6X6X6X6X6X6X6X6X6X6X6X6X6X6X6X6X6X6X6X6X",
"6X6X6X6X6X6X6X6X6X6X6X6X6X6X6X6X6X6X6XN.N.N.N.p.1 4 Y +.s.k.C.#X+XOXE.O.L n 1.<.<.6X6X6X6X6X6X6X6X6X6X6X6X6X6X6X6X6X6X6X",
"6X6X6X6X6X6X6X6X6X6X6X6X6X6X6X6X6X6X/ a.M.S.S.x.1 4 J F.U.d.m..X.X.XE.P.X.( n >.<.6X6X6X6X6X6X6X6X6X6X6X6X6X6X6X6X6X6X6X",
"6X6X6X6X6X6X6X6X6X6X6X6X6X6X6X6X6X< < < i.S.S.p.1 4 I O.Y.R.Y.Y.Y.Y.Y.Y.R.} < n <.6X6X6X6X6X6X6X6X6X6X6X6X6X6X6X6X6X6X6X",
"6X6X6X6X6X6X6X6X6X6X6X6X6X6X6X6XJ.o.T < v / / ! H H I _ | I.R.Y.Y.I.Y.Y.Y.} < j b 6X6X6X6X6X6X6X6X6X6X6X6X6X6X6X6X6X6X6X",
"6X6X6X6X6X6X6X6X6X6X6X6X6X6X6XL.Y.R.o.3 1 < < 3 K K K K Y J.L.L.L.L.L.L.K.} < < < 6X6X6X6X6X6X6X6X6X6X6X6X6X6X6X6X6X6X6X",
"6X6X6X6X6X6X6X6X6X6X6X6X6X6X6XL.R.R.K.F.I < 1 1 1 5 K K I Y T T T T T I 5 3 < < < 6X6X6X6X6X6X6X6X6X6X6X6X6X6X6X6X6X6X6X",
"6X6X6X6X6X6X6X6X6X6X6X6X6X6X6XO.F.I.Y.R.T < 1 A  .E J I I E _ E E E E Y < < < 3 3 6X6X6X6X6X6X6X6X6X6X6X6X6X6X6X6X6X6X6X",
"6X6X6X6X6X6X6X6X6X6X6X6X6X6X6XI T K.Y.R.T 1 < W 3X).I J Y P.I.I.Y.L.I.+.3 < < H K K K 6X6X6X6X6X6X6X6X6X6X6X6X6X6X6X6X6X",
"6X6X6X6X6X6X6X6X6X6X6X6X6X6X6Xo.X.| O.I.W 4 ..U.).@.I } o.I.I.I.Y.Y.R.P._ L 4 J K K K 6X6X6X6X6X6X6X6X6X6X6X6X6X6X6X6X6X",
"6X6X6X6X6X6X6X6X6X6X6X6X6X6XI.R.K.Y } I.E H _._.I J I F.R.I.I.I.Y.L.U.Y.R.o.K K K K K 6X6X6X6X6X6X6X6X6X6X6X6X6X6X6X6X6X",
"6X6X6X6X6X6X6X6X6X6X6X6X6X6XR.R.I.J.o.E W.-X[ F > ~ f.oXoXF F S S S Z ^ M.0.> A I I J J 6X6X6X6X6X6X6X6X6X6X6X6X6X6X6X6X",
"6X6X6X6X6X6X6X6X6X6X6X6X6X6XR.I.I.R.J.| -X4XF $ $ 8.N.&XoXZ - i i i * j z.w.$ B J N J J 6X6X6X6X6X6X6X6X6X6X6X6X6X6X6X6X",
"6X6X6X6X6X6X6X6X6X6X6X6X6X6XR.R.R.I._.2X5X2XF $ % c 4.b.C.j a a a a i k 1.M : B J + o + 6X6X6X6X6X6X6X6X6X6X6X6X6X6X6X6X",
"6X6X6X6X6X6X6X6X6X6X6X6X6X6X` _ | K._.2X>X/.Z $ + d m e.e.d a a a a a d x j & 2 V o X X 6X6X6X6X6X6X6X6X6X6X6X6X6X6X6X6X",
"6X6X6X6X6X6X6X6X6X6X6X6X6X6XX X @ J.(.;X] $ : $ X O : p a a a a a a a p * & X X X X X X 6X6X6X6X6X6X6X6X6X6X6X6X6X6X6X6X",
"6X6X6X6X6X6X6X6X6X6X6X6X6X6XX X + V ' ^.G $ + O o & p a a a a a a a a p O o X o 6XX X o 6X6X6X6X6X6X6X6X6X6X6X6X6X6X6X6X",
"6X6X6X6X6X6X6X6X6X6X6X6X6X6XX X o + D H.G : o o X # a a a a a a a a a s o X X 6X6Xo o o 6X6X6X6X6X6X6X6X6X6X6X6X6X6X6X6X",
"6X6X6X6X6X6X6X6X6X6X6X6X6X6X    , *X;X=X[ : o X X # a a a a a a a a a p o o X 6X6X6X6X6X6X6X6X6X6X6X6X6X6X6X6X6X6X6X6X6X",
"6X6X6X6X6X6X6X6X6X6X6X6X6X6XU D [ <X1X;X] $ o o X # d a a a a a a i s ; o X X 6X6X6X6X6X6X6X6X6X6X6X6X6X6X6X6X6X6X6X6X6X",
"6X6X6X6X6X6X6X6X6X6X6X6X6X6X4X4X2X:X;X;X] $ o X X # a a a a a a a i O o   X X 6X6X6X6X6X6X6X6X6X6X6X6X6X6X6X6X6X6X6X6X6X",
"6X6X6X6X6X6X6X6X6X6X6X6X6X6X5X5X5X1X*XG.A O o X X # a a a = p a a i . o o o o 6X6X6X6X6X6X6X6X6X6X6X6X6X6X6X6X6X6X6X6X6X",
"6X6X6X6X6X6X6X6X6X6X6X6X6X6X5X5X5X5X`.: O X o o o # a a a * = a a a O o   + 6X6X6X6X6X6X6X6X6X6X6X6X6X6X6X6X6X6X6X6X6X6X",
"6X6X6X6X6X6X6X6X6X6X6X6X6X6X6X6X6X6X] * O + l n n l a a p * * a a a m n m m 6X6X6X6X6X6X6X6X6X6X6X6X6X6X6X6X6X6X6X6X6X6X",
"6X6X6X6X6X6X6X6X6X6X6X6X6X6X6X6X6X6X6X* ; ; ,.5.r.$.a a a : = a d k <.5.5.4.6X6X6X6X6X6X6X6X6X6X6X6X6X6X6X6X6X6X6X6X6X6X",
"6X6X6X6X6X6X6X6X6X6X6X6X6X6X6X6X6X6X6X$ c >.z.V.V.9.a a a * = a x <.z.N.b.b.6X6X6X6X6X6X6X6X6X6X6X6X6X6X6X6X6X6X6X6X6X6X",
"6X6X6X6X6X6X6X6X6X6X6X6X6X6X6X6X6X6X6X* =.a.N.V.S.e.a p = * * = =.g.N.V.S.S.6X6X6X6X6X6X6X6X6X6X6X6X6X6X6X6X6X6X6X6X6X6X",
"6X6X6X6X6X6X6X6X6X6X6X6X6X6X6X6X6X6X6X: q.S.S.S.S.e.i * % * : : q.S.V.S.S.B.6X6X6X6X6X6X6X6X6X6X6X6X6X6X6X6X6X6X6X6X6X6X",
"6X6X6X6X6X6X6X6X6X6X6X6X6X6X6X6X6X6X6XB ! 0.n.S.S.e.i * : : : : Q i.n.S.S.b.6X6X6X6X6X6X6X6X6X6X6X6X6X6X6X6X6X6X6X6X6X6X",
"6X6X6X6X6X6X6X6X6X6X6X6X6X6X6X6X6X6X6XI J L f.b.b.9.a = : : : : V Y f.N.S.6X6X6X6X6X6X6X6X6X6X6X6X6X6X6X6X6X6X6X6X6X6X6X",
"6X6X6X6X6X6X6X6X6X6X6X6X6X6X6X6X6X6X6XK I L W W h h : : : : : : B L W ( 6X6X6X6X6X6X6X6X6X6X6X6X6X6X6X6X6X6X6X6X6X6X6X6X",
"6X6X6X6X6X6X6X6X6X6X6X6X6X6X6X6X6X6X6X_ _ E I H : % : : : : : : A _ E E 6X6X6X6X6X6X6X6X6X6X6X6X6X6X6X6X6X6X6X6X6X6X6X6X",
"6X6X6X6X6X6X6X6X6X6X6X6X6X6X6X6X6X6X6XL.I.K.E J 6X6X6X: : : : : ` I.I.L.6X6X6X6X6X6X6X6X6X6X6X6X6X6X6X6X6X6X6X6X6X6X6X6X",
"6X6X6X6X6X6X6X6X6X6X6X6X6X6X6X6X6X6X6XR.I.L._ 6X6X6X6X6X: : : % ..R.Y.I.6X6X6X6X6X6X6X6X6X6X6X6X6X6X6X6X6X6X6X6X6X6X6X6X",
"6X6X6X6X6X6X6X6X6X6X6X6X6X6X6X6X6X6X6XI.R.R.6X6X6X6X6X6X6X: : 6XI.I.Y.Y.6X6X6X6X6X6X6X6X6X6X6X6X6X6X6X6X6X6X6X6X6X6X6X6X",
"6X6X6X6X6X6X6X6X6X6X6X6X6X6X6X6X6X6X6XR.R.I.6X6X6X6X6X6X6X6X6X6XI.Y.R.Y.6X6X6X6X6X6X6X6X6X6X6X6X6X6X6X6X6X6X6X6X6X6X6X6X",
"6X6X6X6X6X6X6X6X6X6X6X6X6X6X6X6X6X6X6XP.P.P.6X6X6X6X6X6X6X6X6X6XI.Y.P.J.6X6X6X6X6X6X6X6X6X6X6X6X6X6X6X6X6X6X6X6X6X6X6X6X",
"6X6X6X6X6X6X6X6X6X6X6X6X6X6X6X6X6X6X6XY Y Y 6X6X6X6X6X6X6X6X6X6XY.L._ I K 6X6X6X6X6X6X6X6X6X6X6X6X6X6X6X6X6X6X6X6X6X6X6X",
"6X6X6X6X6X6X6X6X6X6X6X6X6X6X6X6X6X6X6XK J K 6X6X6X6X6X6X6X6X6X6X6XP.T K K 6X6X6X6X6X6X6X6X6X6X6X6X6X6X6X6X6X6X6X6X6X6X6X"
};
