/* XPM */
static char *_88f1973eafa410adceaa6896190de31rtNJzFNE58IC5MKx[] = {
/* columns rows colors chars-per-pixel */
"60 60 238 2 ",
"   c None",
".  c #2A1D20",
"X  c #18322C",
"o  c #1F3934",
"O  c #2D3A36",
"+  c #3D2516",
"@  c #65140C",
"#  c #6B130B",
"$  c #75150C",
"%  c #6A1C15",
"&  c #7B1810",
"*  c #542B13",
"=  c #6B221C",
"-  c #423A37",
";  c #463B39",
":  c #4A3C3A",
">  c #5A3733",
",  c #4B3228",
"<  c #682B24",
"1  c #79342D",
"2  c #194139",
"3  c #38413D",
"4  c #734314",
"5  c #4C4526",
"6  c #4C442B",
"7  c #54492B",
"8  c #594D2D",
"9  c #514727",
"0  c #4E403D",
"q  c #4B4739",
"w  c #554639",
"e  c #5A533A",
"r  c #5A502E",
"t  c #6A5D2B",
"y  c #635434",
"u  c #6D5C3C",
"i  c #665839",
"p  c #724D3D",
"a  c #77662B",
"s  c #7B6A36",
"d  c #344543",
"f  c #464545",
"g  c #544442",
"h  c #594947",
"j  c #5C4C4A",
"k  c #584846",
"l  c #565656",
"z  c #4A5550",
"x  c #614E4C",
"c  c #6C4B48",
"v  c #774945",
"b  c #63514E",
"n  c #695647",
"m  c #785A4B",
"M  c #665451",
"N  c #6B5654",
"B  c #6D5956",
"V  c #6E5B58",
"C  c #625A5A",
"Z  c #725D5B",
"A  c #765955",
"S  c #7A664A",
"D  c #75615E",
"F  c #7C645B",
"G  c #7A6657",
"H  c #77715A",
"J  c #4A5767",
"K  c #576471",
"L  c #6D6D6C",
"P  c #676668",
"I  c #776360",
"U  c #796562",
"Y  c #7D6965",
"T  c #7A6C68",
"R  c #676C76",
"E  c #737475",
"W  c #767678",
"Q  c #7C7979",
"!  c #73736F",
"~  c #8A1C12",
"^  c #951E13",
"/  c #9D1E14",
"(  c #952016",
")  c #972218",
"_  c #8B241C",
"`  c #A42419",
"'  c #B1281D",
"]  c #B82A1F",
"[  c #942C24",
"{  c #89332C",
"}  c #833C36",
"|  c #973C34",
" . c #8E2922",
".. c #B03025",
"X. c #A01F14",
"o. c #C93329",
"O. c #D4382D",
"+. c #D83B31",
"@. c #C1362D",
"#. c #E53F34",
"$. c #E93F35",
"%. c #8D541C",
"&. c #B3443B",
"*. c #887734",
"=. c #CF443B",
"-. c #E84036",
";. c #E44238",
":. c #835C4C",
">. c #885A55",
",. c #8E4741",
"<. c #B34B44",
"1. c #BE5750",
"2. c #BE574F",
"3. c #85654C",
"4. c #896657",
"5. c #947559",
"6. c #98795A",
"7. c #8C744C",
"8. c #A9755A",
"9. c #816E6A",
"0. c #876B64",
"q. c #85726D",
"w. c #8C7669",
"e. c #9A7C65",
"r. c #897671",
"t. c #897671",
"y. c #8B7873",
"u. c #8C7974",
"i. c #877975",
"p. c #917E79",
"a. c #937E76",
"s. c #9D6963",
"d. c #E95A4B",
"f. c #D65F52",
"g. c #B89B37",
"h. c #A3872F",
"j. c #9B843F",
"k. c #D3B13A",
"l. c #AB8F55",
"z. c #95827D",
"x. c #988479",
"c. c #99856B",
"v. c #A58364",
"b. c #B8876A",
"n. c #A48A7A",
"m. c #B19573",
"M. c #AFA672",
"N. c #BFAC43",
"B. c #CAB34D",
"V. c #C48D6E",
"C. c #CC9777",
"Z. c #CB9975",
"A. c #D2AA7F",
"S. c #C9AE78",
"D. c #C9C75A",
"F. c #F6D849",
"G. c #E3C647",
"H. c #FCF554",
"J. c #396A98",
"K. c #2A5482",
"L. c #5D758D",
"P. c #567592",
"I. c #7E7E81",
"U. c #607A95",
"Y. c #677485",
"T. c #457FB3",
"R. c #4987BD",
"E. c #4B8EC8",
"W. c #71A2CD",
"Q. c #838384",
"!. c #8B8B8E",
"~. c #8B8586",
"^. c #998681",
"/. c #9D8A85",
"(. c #928C8E",
"). c #969598",
"_. c #96908B",
"`. c #A18E82",
"'. c #A18F88",
"]. c #A4928C",
"[. c #A8958B",
"{. c #AD9A94",
"}. c #A99790",
"|. c #B19D96",
" X c #B19580",
".X c #B3A19A",
"XX c #BFAD84",
"oX c #A9A9AB",
"OX c #A5A5A8",
"+X c #AEAEB2",
"@X c #B5B5B9",
"#X c #B9B9BD",
"$X c #B2B2B4",
"%X c #BCB7A6",
"&X c #C5A487",
"*X c #D6A785",
"=X c #D3B08B",
"-X c #D8B38A",
";X c #CCB794",
":X c #D9B894",
">X c #CAB486",
",X c #E2BA94",
"<X c #D7C199",
"1X c #D8CA84",
"2X c #E5C49C",
"3X c #E8C79D",
"4X c #E8D493",
"5X c #D8C3A3",
"6X c #EBC9A1",
"7X c #EBD2A9",
"8X c #F7D3AA",
"9X c #F4DCB1",
"0X c #F8DEB3",
"qX c #EBD0AE",
"wX c #FAE1B5",
"eX c #FCE4B8",
"rX c #BEBEC2",
"tX c #A7BDD2",
"yX c #80A4C4",
"uX c #C0BEC0",
"iX c #B4C6D8",
"pX c #C3C2C4",
"aX c #C5C5C9",
"sX c #CCC9C1",
"dX c #D9D9DD",
"fX c #D6D6D8",
"gX c #CFCFD1",
"hX c #ECDDC1",
"jX c #F7E6C8",
"kX c #E5E4DE",
"lX c #FDEED4",
"zX c #CDD9E4",
"xX c #E2E2E3",
"cX c #ECECED",
"vX c #E8E7E9",
"bX c #FDFDFD",
"nX c #F4F4F5",
"mX c #EBEEF2",
/* pixels */
"                                              : : : : : : : - X X X X X O : : ; : : : :                                 ",
"                                              : : f 0 0 g : - o X X X X O : g g : : : ;                                 ",
"                            ; ; : : : - : - - : : x B 9.9.B x : - - - - k N U q.x -                                     ",
"                            - : : : 0 k h h h j x b N 9.9.D B h k 0 g k c Z U Y h :                                     ",
"                                : k N U t.q.t.'.}.b : N Z q.r.q.Y N Z t.t.i.N : : : - - : : : : : ;                     ",
"                              - : g x Z 9.9.9./.].U N Z D 9.q.z.y.I Y y.q.T N g j B M h g g : : ;                       ",
"                            : : : : : h B B B 9.u.}.{.p.9.B Y |.].y.y.y.Y N N N ^.|.^.q.Z N : :                         ",
"                          : k h b b x V I I D q.u./.'.p.t.I 9.'.'./.p.y.9.I Y t.^.].t.T M h : :                         ",
"                        : g N I y.y.y.y.y.t.y.t.i.y.y.y.y.y.y.y.z.|.].y.y.y.'..X^.t.Z N : : : : : -                     ",
"                          w h x V Z Y 9.y.y.y.^./.u.y.y.y.y.y.y.p.'.^.y.y.y.z.'.p.y.Y U V N M M h k ;                   ",
"                            : ; : k B Y y.y.y.[..Xz.y.y.y.y.y.y.y.t.y.u.y.y.y.y.u.y.y.y.y.y.y.t.V x : ;                 ",
"                        O 0 h b V Z Y 9.y.^.'.'./.9.U t.y.y.y.y.y.y.z.'.z.u.y.y.y.u.^./.p.t.Y U Y I h k ;               ",
"                        - g N I u.u.y.y.y.'.|.z.t.Z V q.y.u.u.u.u.y.^..X'.u.u.y.y.u.}.|.p.t.V Z t.9.B x : ;             ",
"                    - : j N Y 9.y.9.I I D y./.9.I Y 9.'./.u.q.I q.].{.|.'.y.A 1 4.i.^.^.'.'.9.U M j g g : ; ;           ",
"                    : g N Z t.t.r.I N B N 9.y.Z B 9.p.{.{.u.q.B 9.|..X|.'.q.1 % A y.i.y.{.{.p.9.g : ; : : : : -         ",
"                - : j N 9.I j v | { < v 9.Y Z } [ 0.p.{.{.p.9.B 9.|.{.p.q.Z 1 ~ ,.I q.u.{.}.Y Z U V : ;                 ",
"                : 0 M B i.I : < X.~ $ p t.D c [ ` 0.p.{.{.p.9.N Y {.].y.U N { ` } N 9.u.}.}.Z B q.U : -                 ",
"                    0 g k > % _ O.] ^ } Z } [ o.+.s.i.p.p.y.0.[ | z.p.y.,._ ..O. .< >.u.z.i.k k Z Z N h -               ",
"                    : : : > # ^ +.@./ { N { X.O.;.s.q.y.y.t.>.` ..  t.t.| ` o.#.) $ >.i.t.Y g : x N B x : :             ",
"                    : 0 b g @ & ` ~ $ # % ~ X.+.#.>.Z t.q.Z >.+.=.  T N &.#.#.#.' ^ 4.i.I N 7 6 : k B x : -             ",
"                    f g N v $ ~ ` ^ % % %  .[ @.+.>.B 9.9.V >.d.f.9.9.0.1.d.d.d.&...4.t.0.F 8 9 : 0 N j q -             ",
"                ; : M N N v ^ ' +.&.N c c U q.>.N A B B V N 9.6X;XN x.9X9X8X8X8X,X-X0.A &X&Xy 5     : :                 ",
"                : : N N v p / ] $.<.N V Z 9.y.Z N N N N B V y.9X5Xw.n.<X1X<X<X<X6X6Xx.w.=X=Xi 5     ; -                 ",
"                : : N v ) ) / ' $.<.N U y.y.t.Z N N N N Z q.`.9XwXwXM.7 r r r r XX0X2X:X,X=Xy 9                         ",
"                : : j c / ` ' @.-.<.D T y.u.t.a.a.w.w.D I t.`.9XwXwX;XH n + n H ;XwX7X3X2X=Xy 5                         ",
"                : : : > ^ ' #.#.-.1.t.y.y.u.u.5X9X3X:Xp.t.t.n.9XwXwX9XzXQ.. z.fXjXwXwX0X3X=Xy 5                         ",
"                : : : > ^ ' #.-.-.1.y.y.y.y.p.:X0X=XC. Xn.u./.9XwXwXjXkX!.. Q iXqXwXwX0X3X=Xi 5                         ",
"                - : : > ( ' #.-.$.1.y.y.y.y.u.5X9Xb.6.:X:Xp./.9XwXwXjXnX_.. C (.5XwXwXwX3X=Xy 5                         ",
"                  ; ; > ( ' #.-.$.1.u.u.y.9.Y ;X3Xv.6.2X2Xu.`.9XwXwXjXbX_.* w S ;XeXeX0X,XC.r 5                         ",
"                    : > ( ' #.-.$.1.y.y.u.D B &X2Xv.v.7X7Xz.n.9XwXwXlXbX X* * * M.eX0X0X*Xb.y 5                         ",
"                    - > ( ' #.-.$.<.U 9.i.U N 5.j.v.b.3X<Xz.`.9XwXwXjXlXM.4 4 4 &XeX8X6Xm.8.8 5                         ",
"                    : > ( ' $.-.$.<.N Y i.I N w r 8.C.,X=Xz.`.9XwXwXwXwXZ.%.%.%.A.0X6X:X8.7.8 5                         ",
"                    = = ^ ' #.O.] | N A D V N b c b.C.C.*X&X;X0X0X0XeXeX3XA.A.S.3X6X-XC.3.y                             ",
"                    @ $ ^ ' #.o./ { N N N N N N Z b.C.C.C.:X3X0X0X0X0X0XwXwXwXwX3X:XC.b.u 5                             ",
"                    # $ ^ ' #.o.X.1 w x N j g b A 5.8.V.C.*X*X4X6X6X6X6X,X*X*X*Xm.v.3.u                                 ",
"                    @ $ ^ ' #.O.X.1 - j N k : x N 4.6.V.V.V.C.:X:X,X:X,XA.V.V.V.8.7.t 5                                 ",
"                    @ $ $ ^ #.o./ = o 3 0 C L j 0 U T u.q.u i u u u S u i i t i y 8                                     ",
"                    @ @ @ ~ O.@.^ < 2 d g P I.l j W Q.Q.I.n i i i i e j e e e e r 8                                     ",
"                        @ # & & % , o z L ).+XOXoXiXsXvXcXkXkXkXxXxXfX5XsXpX$XoXQ.L                                     ",
"                        @ @ @ @ % + d K I.OX@XrX#XfXdXnXnXnXnXbXbXbXnXxXxXxX5X@X`.T                                     ",
"                                    ! ).$X@XrX@XuXgXdXpXpXpXpXdXvXbXbXbXbXbX4Xk.B.g.a 5                                 ",
"                                  E E ).rX+XoXoXoXiXaX+XOX).OXiXzXnXbXbXmXvXD.k.g.h.t 5                                 ",
"                                E E E ).@X!.I.W Q _.).i.! z J E.W.dXmXbXtXJ.M.F.*.5                                     ",
"                              L E I.!.oXrX).E W z._.).~.Q 0 z R.W.iXiXzXW.J.M.F.*.6                                     ",
"                            E W E !.@XaXdX).E z.^.{..X.X`.r z R.R.E.E.E.T.P.M.F.7.3                                     ",
"                            E W E ).aXdXvXOXE y.u.n.n.n.w.r e U.P.U.U.U.L.K c.M.S f                                     ",
"                            E W E OXdXcXbXoXE F 3.6.6.4.m 7 r 3.:.m 3.:.:.:.t.Q.l d                                     ",
"                          R E Q.).$XdXcXbXoXW F 3.6.8.5.3.8 w R Y.Y.Y.R K K P L z f                                     ",
"                        E W W !.#XaXdXcXbXoXE F 3.6.e.v.6.8 z R.E.E.T.J.J.K.J J f f                                     ",
"                        E W W !.@XaXdXcXbXoXE G m 5.v.e.5.8 e L.U.U.L.L.J J C j.e q                                     ",
"                        E W W !.@XaXdXmXbXoXE V m 5.e.e.5.7 e P L L ! R P z j.g.a 5                                     ",
"                        E W W !.@XaXdXcXbXoXE n y i u u s g.N.D.D.D.B.B.g.j.*.a t                                       ",
"                        E W W !.@XaXdXcXbXoX! e 5 9 9 7 a G.F.H.H.H.H.F.B.g.a 9                                         ",
"                        E W E !.@XaXdXcXbXoXE     5 7 H y.M.M.S.S.>Xl.s a a t                                           ",
"                        E E W !.+XpXfXcXbXoXE     5 r u.x.^./.{.|.{.w.5 5 5                                             ",
"                            E Q Q.).rXxXbXoXE     5 7 m F 4.4.c.c.5.S 9 5                                               ",
"                            E E W !.+XgXcXOXL     5 7 n m 3.4.v.5.3.n 9 5                                               ",
"                                W I.R.Q.!.        5 7 n m :.4.8.v.6.S 9 5                                               ",
"                                L T 4.T E         5 7 i n u m 5.5.5.S 9                                                 ",
"                                o 2                   7 7 7 7 8 7 8 7                                                   "
};
