/* XPM */
static char *_645114432067[] = {
/* columns rows colors chars-per-pixel */
"64 64 70 1 ",
"  c #000001",
". c #06090B",
"X c #0F0F11",
"o c #141313",
"O c #1B1A17",
"+ c #141719",
"@ c #17191A",
"# c #1C1C1C",
"$ c #22211F",
"% c #1E1F20",
"& c #252423",
"* c #282727",
"= c #2C2C2A",
"- c #302F2D",
"; c #32312F",
": c #2F3031",
"> c #353433",
", c #383735",
"< c #3A3936",
"1 c #3D3C3A",
"2 c #403F3C",
"3 c #42413E",
"4 c #454441",
"5 c #494643",
"6 c #4B4946",
"7 c #4E4C49",
"8 c #514E4B",
"9 c #54524E",
"0 c #58554E",
"q c #565450",
"w c #595652",
"e c #5C5A55",
"r c #5F5D58",
"t c #605D57",
"y c #615E59",
"u c #65625C",
"i c #68655F",
"p c #676560",
"a c #696661",
"s c #6D6A64",
"d c #716D66",
"f c #726E68",
"g c #75726B",
"h c #79756E",
"j c #7D786F",
"k c #7B7770",
"l c #7D7972",
"z c #827D75",
"x c #837F78",
"c c #858077",
"v c #868179",
"b c #8A857D",
"n c #8D887F",
"m c #8B8780",
"M c #8E8A81",
"N c #928D84",
"B c #948F88",
"V c #959087",
"C c #969189",
"Z c #9A958C",
"A c #9D988F",
"S c #9C9790",
"D c #9E9A91",
"F c #A19D94",
"G c #A39F98",
"H c #A5A097",
"J c #A6A199",
"K c #AAA59D",
"L c #AEAAA1",
"P c #B0ABA4",
/* pixels */
"CVADDLGJDDZl3pSGCmAFCANvNZCZNMGDZLJGgwpMflv7eMp8685eCCxfxxklClND",
"ZNMDBVCvSCZs71lJACCCvMNkvNCZAAFAHLLJm5sZVmhvlklyfkzlmNfsgmmkMbMM",
"bMNVxCVMSMZNe7wffkxmvg9:ulvnZAGJPKDJC&9MNlkVppNmmDh9prulCAGJCxmA",
"CCDCGJvMBMVxepssppzlxk:uxznCJJDJJHLAu>14eurrq6eq95*,&=56ffhfrklV",
"pygfs811,59<9pkspuesxa.eVCCNkggfpfl6@e9r9866wq75::3311=%3&.+:<>>",
">>3935qq9rrprw9991:9e=1:386<18eppw9668rperpssfppr8yfra63pw77ssye",
"9ergp8urwpppspsrquqfr>9yw9resggrpapw99ywqesuwupsw3ur8re83eeer7pu",
"e6pssrrprw9epggsrfrpe5svfspsggs9upr93er4qweqrquqr96r639epgs8e88q",
"r9xgzCklpqrerawy8665eqpgrw26rr27epw9r0ugrwqdqrsr7izfrfeulkp478,9",
"rkDvgVMCvqw9ggsszkzhhfpeslNs:svsffhzlgghdivl&rppevVMvNNlMCzsayuy",
"MNZDMNgvZ987ssggahzcke<7yzMw+qfifsfliacalMnq:9rp2zzMvvvjlzlglfjh",
"VMsMSNrpsw8wfrukgijkseeqrrxr%665ee349alvMccCMkq88glllgjjclxkgghg",
"ZMfrsri5ql8rvlssjvllhfaw5rxe+qe9886rrsushhicHFq:NVhhfbbczbzsjgjf",
"DNNNVVVMVvqrvVklnnzhsslvfkn8%qsip9ehgsrefluunAp<ZHDVvNbljncfnlcu",
"VCvDZVNnVNr7xlgmnxfirfhmNMn0=whlsryeilf9fg8phNs6CJCNvnMVVNNf0zZg",
"MNMmNbzvVMwerlnbzfsssfhzvMN7>uvnlhhweyzdr4>pcAp7fMVbNZCMjnbwwlcw",
"ZZMwzMxxvg:iuinVguiNCflxluzr>enbCh09isdhf9whsf<8wqxDZllvlvvszsw9",
"u8<*,<312>&ufsgvzfgclghsfVCe<4xMbzhspf5>1&5>.X%,6<>ir=:132q963<w",
"&:>,1=<5<<21<485q136=751;w3&8431,>3,@+%,,:=;17353885663:1<&=*<2q",
"6778iw7w968u98636<<=:&&>*X46w9e99953174455148y76egfrq9978443114<",
"u:=<e718w38ipq9yqe788755677wsehfuuew79qe711958q1ujhfse9874:4wr49",
"xijfuqess8wusr8wye42651185eirqsiei57y5577fsrkm73ei9rgi79wsMMmlgv",
"vcZCZZCVz9hzvzcZCvgq135510cls6rlszsvMvzNMBxlgMbryuur73uzVDLCvksN",
"VNNcNFCCAAZMVCCClNh74wwq3enchjlclcbvvgzNblMvvMzu3wewq2gMDLGZvxxC",
"NbnbNNVnZHMNVVZCkpe8wayy3rczzhhcvzbzbzzblbbzVMhg576e9>sHZSCCMMxv",
"AnnvlVZnNCMnNNvMz8yu0eus7wcjskvnMbMCbbMnMMNaujVZmu7q9:gKDZMmNMMC",
"VVnnvCNMnnVbnbxVkkf35yfs1snskVnnncnnncbnVns49dZCvuuu829lgmMgllNZ",
"McCbvjvVnNNnnNVCVva=wsss<cAfnAnihVMMCCVMMw 7ddpdr=5895$9suslbgvM",
"CjfxgfnFZFxzCVVCNjvesswq3ygacCNklCCbbnAVr1513eexsq,<541:=>6sggkN",
"wviillihfzlzVNNMlvl6suru77r7rznbvzhsjiy5%346,,33%8718r541: +:&>>",
";12&><<>;5uw3wuq6e13eissswr7=4w32719j6=;895e6<&==34<58qrue33<,>2",
"6<388qwuswq5635565qpyeqwse375=:7w8wws415286994453:551<wp971353<4",
"ae4009eip959qusw88qw888wet855918cb852w718ue0uu0ieee0es057kzhish0",
"uwehczccvmlr5avhssfzgzzgfhxkhzzhzMuyquy5lxvnlgljzcgdjnNhhNNNNVVc",
"bzncbnZVMCDh7rgmvzzNMNFFCSBBSSVACNJv5ssyMZNzghNbvnvzNCCFZBnNZZhZ",
"bNlgjjnCVvMmu2llxbkyxMnZFNZCZZnBZCHv9sauZSNgdhMMnvnZVZMBZBCnziuz",
"fw7kccnNMAZMy#gbzzxsbGAZFZZSFFGFZMDbrpe<vGSvfNbzjzzvznNnbnVBZzwu",
"zbsnnCCnCCZDi>6kzfzVxxFnNFCBCFGFCMkg9us96CDNMbbMjzvbNvvNzVVVGFZh",
"BZAVVFMVZCMCi,2zbbnBxbCFCNBCFZCFCFg9quhg7fJKbsvzvlnCZBNCZFVZHFJD",
"VvNZGZNAMMnc57>fNjhhhVZFCnyjNCZCDZhhqwgzu=rvbAvghzVCCCzhzjuzZDFD",
"gyzCGbnvbmmby95wkxh72qhxxk88yzxfNxhge9ch9q> gNualvvznbhiidufznbj",
"sazvzzlsyyss7ee3-;,18t,25-46,<8655sd0igg0ulw7=&&>85=337w5>3-208y",
"3;<&@331>#O&6yy858861,3216q7121;<959usus7schs0977<222<;<==><233e",
">3227<<3636566ed8267736eq88e8epyespi9eusar7MA0uyszsy008w5663qay0",
"yu813177385487wdteeyuspyye087qeyuuee9ew9s99ib7ysffuuw8ud0857wsld",
"js07isuiwszdfzvzxbkflbmBzy77ydtwus86uadueggzggeeyyunchNzs0fjzjhd",
"fe9sBMi8wsbxxxnMzyzzhbxbNz1yNBxxbnvjlcdulgzyeni4ew2zBVBvdgi7dzbn",
"96<lMZdwittiffyzbfzbfhzxvVdwjjmmcvbbcisiswe6cbu2985fbvCnkzjfzznv",
"885ycnggc63auslhiszzzzizdbAOxxNSnnbhzjgvdddujcw7gugbNcvzjgcvczhz",
"ee92bFgsvd0dghbjsxzyysyzdznOyCNNnbzshigzczhygzdusybVvu6acccvnnnV",
"dyw><ge70sdudgghazzfiziza8s$Ofxdfzgduuu0edshchstiezBvllfcvjgdbVn",
"i8e>667uyiddgsr0yzygtytiyzy->8hsfy9edgdydgldhjdy9tbzcbMmzgcjzcnn",
"yed930ewyewasha9tiy0<99tti2-5<tiyupudsy7uizzzjt9eubdzhblBnnVnnnn",
"usjigsijaeusfre752ga6e84$ #,65-27e93413$=>;yu7;0d667iuiidfu00uhg",
"zkhig8ig9uy7>&4486297=&*>6590yt5<7si08791<&O&50esugiw00rtytiuuuu",
"ekd63<33=><137yuyaytaw57069wyydaeess9uu5e9789eeeighgggshiughhdid",
"9iau7q99raw47uaudatadddtyppfsspayy8es8eewwee8q9wafgkaaui9uiyiuye",
"dkihshzZNMbl6wagyuyiswyaushlse8ww8dklpey57898yihpruyfhfdgzgdzvbz",
"fblzhlvlzCZb17slyaytdwtifpq6yr5516hlhzBZzbvbNnAVfye9hbzugvzbnNVZ",
"pggelguslkhd<qlgzztyzfdkkkfu7e72=yzhgjmmnVZNnNBNzwwqssitigjzNZzV",
"gvssgiggMqu9>qrqaziygsyddulBfq61osbsjjzzjlnvzbMcl677uyis8dznBvyz",
"zNbBbMCVvu7>35qshgy8tzhasfdlk814*2bNkgdzhcbggzgddw65yssiejnxszfg",
"NvbjcbMNhui756uhzayyaffftysuge>4=7dxshzzhzjhsjhvv0668yuiidVzsjiz",
"lCbdsivclisa64ilzy8agshgysfzl8>3=8zzs9zzjbchnzbbVi9077wyydvzvzhg"
};
